<svg version="1.1" id="Layer_1" xmlns="http://www.w3.org/2000/svg" xmlns:xlink="http://www.w3.org/1999/xlink" x="0px" y="0px"
	 width="100%" viewBox="0 0 1024 576" enable-background="new 0 0 1024 576" xml:space="preserve">
<path fill="#000000" opacity="1.000000" stroke="none" 
	d="
M543.342407,141.600006 
	C558.163208,150.314957 572.619995,158.927536 587.200989,167.324371 
	C590.183472,169.041855 591.345154,171.030563 591.331116,174.472931 
	C591.222595,201.135696 591.237000,227.799393 591.362305,254.462112 
	C591.378357,257.879272 590.322510,259.882141 587.247803,261.572174 
	C564.036926,274.329987 540.906128,287.234253 517.808411,300.196259 
	C515.047363,301.745667 512.906372,301.895966 510.024780,300.214996 
	C486.714905,286.617310 463.299774,273.200012 439.906372,259.745667 
	C435.549561,257.239899 434.643219,252.859909 437.511871,245.555145 
	C461.090820,257.575562 483.489807,271.560822 506.543152,284.332336 
	C508.699646,282.389771 507.914703,280.074768 507.952667,278.050629 
	C508.074493,271.553925 507.767273,265.043549 508.053925,258.557404 
	C508.250671,254.106247 506.389252,251.589844 502.631592,249.449905 
	C482.654816,238.073380 462.797363,226.487442 442.897125,214.976501 
	C434.980530,210.397278 434.373962,208.976730 436.643219,198.687927 
	C460.784027,210.675461 483.274384,225.106644 507.537689,238.488922 
	C508.386627,230.805222 508.275909,223.810226 507.404480,216.848938 
	C507.170502,214.979996 504.872711,214.318192 503.321472,213.408493 
	C482.914917,201.441483 462.485443,189.513443 442.061340,177.576355 
	C440.767944,176.820435 439.398743,176.170868 438.189331,175.299072 
	C434.574188,172.693192 434.647949,169.888657 438.587585,167.626877 
	C450.145355,160.991425 461.764496,154.462341 473.383209,147.933701 
	C485.582123,141.079041 497.844757,134.336777 509.997528,127.401657 
	C513.089294,125.637306 515.627625,125.559410 518.769165,127.468811 
	C526.736938,132.311600 534.923462,136.794403 543.342407,141.600006 
M548.441101,158.109055 
	C538.521423,152.311295 528.518372,146.649200 518.729797,140.637939 
	C515.551270,138.685974 513.182434,138.937836 510.105255,140.746429 
	C499.771820,146.819656 489.262817,152.593719 478.833710,158.504654 
	C471.226135,162.816391 463.638550,167.163315 455.255402,171.943069 
	C474.641815,183.048828 493.123444,193.598740 511.553131,204.238647 
	C514.025269,205.665833 515.897461,204.798859 518.015808,203.586441 
	C532.757080,195.149185 547.537720,186.780502 562.294556,178.370300 
	C565.547546,176.516373 568.755981,174.584381 572.782410,172.220016 
	C564.274658,167.283051 556.677490,162.874451 548.441101,158.109055 
M575.408447,221.017944 
	C558.502258,230.646927 541.639404,240.353653 524.652405,249.837891 
	C521.337524,251.688629 519.819397,253.809097 519.964783,257.691803 
	C520.244568,265.168182 520.055603,272.661469 520.110901,280.147400 
	C520.121399,281.569550 519.664001,283.201721 521.279114,284.173431 
	C521.638306,284.143005 522.021912,284.217896 522.283813,284.072968 
	C540.615417,273.930206 558.937500,263.770264 577.259460,253.610153 
	C579.031921,252.627289 579.786438,251.122635 579.775818,249.091721 
	C579.729675,240.274887 579.714233,231.457687 579.741516,222.640793 
	C579.751221,219.493744 578.331055,219.305008 575.408447,221.017944 
M564.279785,190.838196 
	C550.967529,198.389206 537.651123,205.933075 524.348389,213.500854 
	C522.781128,214.392471 520.643066,215.051300 520.440186,217.067307 
	C519.764587,223.780487 519.785156,230.504242 520.511719,237.517395 
	C521.845398,237.259247 522.547485,237.290298 523.068542,236.998337 
	C541.065308,226.914932 559.047913,216.806091 577.021301,206.681076 
	C578.346497,205.934555 579.623596,204.981018 579.635803,203.279449 
	C579.684204,196.553040 579.655640,189.826096 579.655640,182.128296 
	C574.087158,185.275269 569.499268,187.868057 564.279785,190.838196 
z"/>
<path fill="#000000" opacity="1.000000" stroke="none" 
	d="
M538.878906,334.006775 
	C539.837585,331.107330 540.768677,328.607605 541.496643,326.050049 
	C542.244080,323.424255 543.921509,322.351501 546.570129,322.123871 
	C552.320129,321.629669 553.269165,322.393616 553.293396,328.183594 
	C553.330383,337.007660 553.293396,345.832367 553.387024,354.655762 
	C553.419678,357.737122 552.732666,359.827667 549.053528,359.858215 
	C545.420715,359.888367 544.552246,357.985504 544.672852,354.795624 
	C544.821899,350.854584 544.708496,346.903656 543.895508,342.781433 
	C542.196350,347.184204 540.457092,351.572083 538.815918,355.996399 
	C538.050232,358.060547 536.952271,359.385498 534.503784,359.368713 
	C531.990051,359.351440 531.135376,357.823883 530.358887,355.811188 
	C528.937439,352.126434 528.023071,348.207855 525.522156,344.603577 
	C523.908081,349.319855 525.102295,353.989716 524.392212,358.392395 
	C516.946045,360.913910 515.786316,360.100494 515.781982,352.601624 
	C515.777222,344.276886 515.737366,335.952148 515.719910,327.627411 
	C515.714539,325.094269 515.475037,322.307312 519.113098,322.125122 
	C522.521545,321.954437 526.051025,321.120117 527.491211,326.045044 
	C529.246887,332.048737 531.718140,337.843231 534.112732,344.362122 
	C537.022827,341.044159 537.562744,337.554840 538.878906,334.006775 
z"/>
<path fill="#000000" opacity="1.000000" stroke="none" 
	d="
M856.887939,324.007568 
	C857.123596,334.537201 857.180115,344.679810 857.293152,354.821777 
	C857.326721,357.834473 856.278442,359.422485 852.937500,359.398529 
	C849.650024,359.374969 848.554443,357.946747 848.647522,354.836975 
	C848.784485,350.258759 848.682861,345.673370 848.030151,340.977570 
	C846.386658,345.264648 844.798584,349.574097 843.077637,353.829865 
	C842.132812,356.166351 842.023987,359.229950 838.306274,359.333984 
	C834.188599,359.449219 834.298279,355.992798 833.269287,353.581177 
	C831.775330,350.079803 830.500793,346.484802 828.121704,343.018188 
	C828.121704,346.849640 828.073242,350.681885 828.137939,354.512238 
	C828.184631,357.275208 827.877075,359.340637 824.225830,359.406921 
	C820.606018,359.472595 819.008118,358.121277 819.004211,354.530518 
	C818.994507,345.548889 818.882874,336.567444 818.843384,327.585785 
	C818.833008,325.224335 818.687195,322.641266 822.155457,322.634186 
	C825.595947,322.627167 829.599548,320.908295 831.253967,326.087433 
	C833.218750,332.238037 835.501709,338.286987 838.128418,345.748047 
	C840.567444,339.224792 842.506531,333.915375 844.536316,328.640839 
	C847.087524,322.011719 849.603149,321.003143 856.887939,324.007568 
z"/>
<path fill="#000000" opacity="1.000000" stroke="none" 
	d="
M322.869781,340.871826 
	C323.442749,342.244354 323.877869,343.302765 324.529602,344.888123 
	C327.584473,339.040802 328.869507,333.166351 330.897858,327.574646 
	C332.496582,323.167419 337.338226,321.041687 341.648804,322.716339 
	C343.319763,323.365509 343.268402,324.668427 343.273773,325.976959 
	C343.314056,335.808563 343.286713,345.640533 343.359894,355.471832 
	C343.380310,358.213806 342.218689,359.378387 339.473480,359.362610 
	C336.835938,359.347473 334.818085,358.911102 334.853546,355.639771 
	C334.902161,351.149109 334.865692,346.657501 334.019012,341.923645 
	C332.669708,345.556091 331.503723,349.271606 329.908844,352.792847 
	C328.781250,355.282379 329.193848,359.206177 324.893524,359.270233 
	C320.604797,359.334167 320.790192,355.539886 319.700684,352.980774 
	C318.027191,349.050079 316.596191,345.016174 314.335999,341.182587 
	C314.335999,345.770538 314.264160,350.360046 314.362640,354.945862 
	C314.422852,357.750946 313.570831,359.304016 310.431671,359.350342 
	C307.292023,359.396637 305.814636,358.253693 305.826294,355.016327 
	C305.859802,345.684601 305.767334,336.352539 305.753632,327.020538 
	C305.750641,324.978271 305.757629,322.595428 308.624603,322.760376 
	C311.606262,322.931946 315.527802,320.260406 317.274933,325.005646 
	C319.172943,330.160583 320.919403,335.371277 322.869781,340.871826 
z"/>
<path fill="#000000" opacity="1.000000" stroke="none" 
	d="
M589.233032,335.436646 
	C589.108643,332.667450 588.948364,330.340424 588.976379,328.015625 
	C589.003479,325.761810 588.430054,323.002472 591.565063,322.294983 
	C594.652283,321.598267 597.496460,322.020844 599.363220,325.138428 
	C602.425476,330.252411 605.593811,335.302856 609.984863,340.236664 
	C609.984863,336.067291 610.057068,331.896240 609.961670,327.729034 
	C609.887451,324.483704 610.640503,322.123657 614.520752,322.148987 
	C618.300049,322.173676 619.225708,324.401825 619.204163,327.703400 
	C619.146667,336.516205 619.251221,345.329987 619.196960,354.142822 
	C619.184509,356.171387 619.838501,358.873047 616.653992,359.215271 
	C613.896790,359.511597 610.995728,359.973358 609.180176,356.790344 
	C606.298462,351.738220 603.247131,346.782654 600.248657,341.797577 
	C599.923706,341.257324 599.474182,340.792084 598.156250,339.110016 
	C598.156250,345.003204 598.075073,349.597412 598.183411,354.187164 
	C598.262024,357.521667 597.440796,359.515167 593.477478,359.453247 
	C589.255371,359.387177 589.109619,356.758636 589.127869,353.768707 
	C589.164368,347.805664 589.227417,341.842743 589.233032,335.436646 
z"/>
<path fill="#000000" opacity="1.000000" stroke="none" 
	d="
M393.035522,345.462280 
	C393.072968,348.559814 393.099731,351.225861 393.137909,353.891754 
	C393.181915,356.964325 392.889343,359.428162 388.682434,359.450714 
	C384.681519,359.472168 383.953094,357.440155 383.961029,354.151031 
	C383.982300,345.318848 383.857361,336.486328 383.859802,327.653961 
	C383.860382,325.539459 383.556946,323.101166 386.526428,322.485046 
	C389.288025,321.912048 391.807617,321.977020 393.481598,324.852509 
	C395.660492,328.595367 397.965881,332.264984 400.239716,335.951965 
	C401.162506,337.448242 402.145630,338.907318 404.107666,340.105164 
	C404.107666,335.836517 404.195526,331.565521 404.081146,327.299927 
	C403.981476,323.583313 405.903137,322.353088 409.311554,322.327728 
	C412.935547,322.300781 413.210083,324.577545 413.200714,327.325592 
	C413.170105,336.324524 413.239868,345.323883 413.189880,354.322632 
	C413.179382,356.209198 413.754639,358.724152 410.933197,359.131348 
	C408.371826,359.501038 405.522430,360.107849 403.812042,357.101166 
	C401.505554,353.046570 399.206726,348.987061 396.843658,344.965485 
	C395.954681,343.452576 395.507446,341.565826 393.625641,340.698181 
	C392.571991,342.083649 393.211029,343.615936 393.035522,345.462280 
z"/>
<path fill="#000000" opacity="1.000000" stroke="none" 
	d="
M481.210846,342.302063 
	C481.285828,344.261322 481.321747,345.757996 481.332825,347.254883 
	C481.401581,356.531006 480.585449,357.702209 472.760162,359.587250 
	C464.610748,361.550354 457.061737,358.846985 454.355225,352.480743 
	C451.250641,345.178284 450.970428,337.577515 453.893311,330.115387 
	C456.071564,324.554382 461.365509,321.497833 467.960724,321.849548 
	C473.379333,322.138519 478.169403,323.782104 480.255890,329.490814 
	C480.904541,331.265564 482.321228,333.591095 479.807556,334.753448 
	C477.570953,335.787659 474.570435,336.109528 473.004364,333.635437 
	C471.133362,330.679596 469.187378,328.376312 465.457428,329.629730 
	C461.309601,331.023621 461.237823,334.798523 461.137451,338.318756 
	C461.061798,340.972412 461.063629,343.660583 461.399841,346.286163 
	C461.922363,350.366516 465.372131,352.916840 469.132874,352.285767 
	C470.887115,351.991394 472.386780,351.338837 472.459503,349.231018 
	C472.522247,347.410736 471.549927,346.399780 469.763550,346.348480 
	C467.195953,346.274719 466.236603,345.009399 466.465088,342.512207 
	C466.724487,339.677277 468.811584,339.353149 470.794495,339.652374 
	C474.278748,340.178101 478.486816,337.517609 481.210846,342.302063 
z"/>
<path fill="#000000" opacity="1.000000" stroke="none" 
	d="
M279.164551,354.944092 
	C277.115509,351.678314 275.274841,348.726624 273.327667,345.604156 
	C268.739655,347.504517 270.433350,351.330109 270.356720,354.266754 
	C270.266418,357.726746 269.386566,359.557098 265.509277,359.403198 
	C262.579681,359.286987 261.180573,358.192749 261.169342,355.278290 
	C261.132843,345.794373 261.130859,336.309875 261.005737,326.826996 
	C260.958405,323.237274 262.947113,322.296265 266.046173,322.228180 
	C269.388672,322.154694 270.403870,323.893005 270.239258,326.932709 
	C270.113708,329.251404 270.214294,331.582275 270.214294,334.842468 
	C276.443695,329.719391 278.676300,318.885132 290.232910,323.445435 
	C287.236877,327.139801 284.511047,330.976898 281.283417,334.331116 
	C278.674408,337.042450 278.692657,339.121338 280.844391,342.091400 
	C284.516205,347.159546 287.766083,352.533417 291.260956,357.882538 
	C284.832123,360.615967 282.366180,359.958282 279.164551,354.944092 
z"/>
<path fill="#000000" opacity="1.000000" stroke="none" 
	d="
M580.959717,359.548523 
	C574.942078,359.501404 569.291748,359.387421 563.642029,359.414154 
	C560.922424,359.427002 559.722656,358.288208 559.732971,355.545258 
	C559.769958,345.731201 559.762268,335.916443 559.676636,326.102783 
	C559.652771,323.363983 560.839478,322.107178 563.517639,322.106659 
	C569.671875,322.105499 575.826172,322.083588 581.980408,322.089600 
	C584.602356,322.092133 586.005066,323.312622 585.912964,326.062286 
	C585.826294,328.646851 584.714050,330.115662 581.962280,330.071136 
	C579.135254,330.025391 576.307007,330.024200 573.479553,330.043304 
	C571.177124,330.058868 569.011353,330.311523 569.130737,333.444672 
	C569.250366,336.585022 571.521179,336.573578 573.758911,336.575165 
	C575.255798,336.576202 576.753845,336.563110 578.249329,336.503479 
	C580.680420,336.406555 582.017578,337.416504 582.037109,339.974579 
	C582.054871,342.299408 581.207703,343.877747 578.691223,344.032806 
	C577.033325,344.134949 575.365784,344.153381 573.704834,344.114136 
	C570.951172,344.049164 568.652100,344.518585 568.515137,347.956146 
	C568.374390,351.489960 570.666626,351.989532 573.442993,351.960083 
	C575.937744,351.933594 578.433350,351.964600 580.928223,351.995667 
	C583.254333,352.024658 585.236816,352.390778 585.367004,355.428436 
	C585.493164,358.372162 584.412720,359.875824 580.959717,359.548523 
z"/>
<path fill="#000000" opacity="1.000000" stroke="none" 
	d="
M499.422607,351.859711 
	C502.698029,351.933899 505.529541,351.924500 508.356506,352.032867 
	C511.274750,352.144684 512.387573,353.783813 512.271973,356.638275 
	C512.152710,359.584808 510.196777,359.600861 508.102936,359.584106 
	C502.286835,359.537628 496.470551,359.447540 490.654724,359.471405 
	C487.944885,359.482513 486.739990,358.353027 486.753937,355.586029 
	C486.802521,345.929657 486.797394,336.272125 486.692627,326.616364 
	C486.661224,323.723572 487.803436,322.176422 490.708588,322.155914 
	C496.700806,322.113586 502.693573,322.111633 508.685883,322.141205 
	C511.059021,322.152893 512.345581,323.215759 512.308838,325.813751 
	C512.272034,328.421082 511.315796,329.959503 508.564819,329.998718 
	C506.068115,330.034302 503.570526,330.016296 501.074066,330.061432 
	C498.591919,330.106293 495.539307,329.709991 495.571655,333.391907 
	C495.605103,337.193359 498.886536,336.312134 501.207062,336.549164 
	C502.692108,336.700836 504.200806,336.638031 505.698944,336.640381 
	C508.271698,336.644440 509.187622,338.087372 509.183960,340.469025 
	C509.180481,342.723511 508.067047,343.870422 505.876007,343.977264 
	C504.047974,344.066467 502.215088,344.052979 500.384857,344.102692 
	C498.313446,344.158905 496.248962,344.259247 496.039124,347.050598 
	C495.866974,349.341187 495.928223,351.508484 499.422607,351.859711 
z"/>
<path fill="#000000" opacity="1.000000" stroke="none" 
	d="
M738.614563,322.068359 
	C744.399109,321.437988 749.496155,322.070190 752.964233,326.714752 
	C754.304443,328.509674 756.755981,331.235962 753.955872,333.187561 
	C751.586365,334.839020 748.156067,335.155273 745.933350,332.093628 
	C744.783386,330.509583 743.575317,329.328400 741.505005,329.348907 
	C739.684509,329.366974 738.126465,329.965820 737.569885,331.790405 
	C737.039734,333.528503 738.209045,334.696503 739.618347,335.357361 
	C741.567322,336.271210 743.626465,336.952698 745.647278,337.710114 
	C749.678467,339.221008 753.085876,341.345001 754.559631,345.758209 
	C755.774292,349.395660 755.267029,352.644836 752.899475,355.608521 
	C747.234497,362.699860 732.758423,361.132111 728.915527,352.945801 
	C728.062927,351.129822 726.387939,348.650879 729.211609,347.315643 
	C731.389709,346.285614 734.217163,345.878174 735.848206,348.673309 
	C737.219971,351.024017 739.029053,352.539795 741.804993,352.497406 
	C743.530640,352.471039 745.192322,351.958832 745.726135,350.039978 
	C746.240967,348.189484 745.430481,346.698761 743.795898,345.869263 
	C741.873474,344.893707 739.840454,344.129883 737.835022,343.325256 
	C732.793396,341.302460 728.532288,338.534332 728.378052,332.390839 
	C728.248169,327.216766 730.955750,324.528412 738.614563,322.068359 
z"/>
<path fill="#000000" opacity="1.000000" stroke="none" 
	d="
M677.312012,330.195160 
	C675.036316,333.631775 677.365906,335.007690 679.658752,336.114624 
	C682.043152,337.265717 684.649841,337.948914 687.068115,339.038879 
	C691.837952,341.188782 694.386902,345.409760 693.933228,350.096436 
	C693.464539,354.937927 690.411438,358.183167 685.041748,359.547577 
	C677.757202,361.398499 670.177185,358.365814 667.626648,352.411835 
	C666.846313,350.590179 665.135986,347.974640 668.261841,347.014099 
	C670.458191,346.339142 673.755615,345.028900 675.003845,348.821014 
	C675.974670,351.770233 678.240356,352.389404 680.834656,352.519989 
	C682.665527,352.612183 684.101135,351.806305 684.637451,349.952972 
	C685.187561,348.051605 684.281494,346.595154 682.651733,345.843719 
	C679.790283,344.524353 676.776001,343.539215 673.899048,342.250244 
	C669.337158,340.206360 666.846313,336.688568 667.361206,331.596313 
	C667.880310,326.462006 671.263550,323.748535 675.975220,322.437195 
	C682.304382,320.675629 689.555359,322.768524 692.047852,327.292969 
	C693.101440,329.205292 694.984924,331.872681 692.274414,333.437225 
	C689.968140,334.768433 686.658508,335.396667 684.792053,332.193542 
	C682.984253,329.090851 680.595398,328.779510 677.312012,330.195160 
z"/>
<path fill="#000000" opacity="1.000000" stroke="none" 
	d="
M811.124512,336.978119 
	C812.987488,342.978394 812.421448,343.817200 806.889771,343.933716 
	C805.224670,343.968781 803.546570,344.050537 801.894714,343.895172 
	C799.244324,343.645874 798.285522,344.813293 798.379517,347.362000 
	C798.463623,349.644409 798.418884,351.843262 801.586121,351.882599 
	C804.750488,351.921875 807.916138,351.944855 811.078064,352.059998 
	C813.507385,352.148438 815.239441,352.984100 815.174438,355.911621 
	C815.106445,358.974396 813.160217,359.339783 810.791260,359.338776 
	C805.293640,359.336456 799.794006,359.271088 794.299194,359.399536 
	C791.155518,359.473022 789.753296,358.268677 789.762512,355.028809 
	C789.789551,345.533752 789.718994,336.037079 789.546997,326.543579 
	C789.496704,323.771210 790.540344,322.586151 793.301941,322.573822 
	C799.286987,322.547150 805.271179,322.356506 811.256226,322.318542 
	C813.635376,322.303436 815.432312,322.916962 815.323975,326.010010 
	C815.227295,328.769348 814.016174,329.980804 811.392639,330.009369 
	C808.561157,330.040192 805.729065,330.020935 802.897705,330.060028 
	C800.677673,330.090668 798.437500,330.022797 798.404846,333.275940 
	C798.370605,336.677887 800.560791,336.371490 802.838379,336.235474 
	C805.492004,336.077026 808.168152,335.838928 811.124512,336.978119 
z"/>
<path fill="#000000" opacity="1.000000" stroke="none" 
	d="
M418.790894,350.922424 
	C421.880524,342.608185 424.896545,334.683777 427.789581,326.714722 
	C428.770081,324.013794 429.964569,322.046631 433.320618,322.000580 
	C436.651550,321.954865 437.973328,323.745789 438.952667,326.520660 
	C442.699738,337.137756 446.560394,347.714813 450.491425,358.619568 
	C445.817566,359.842468 442.112488,360.470612 440.154144,354.952667 
	C438.703400,350.865021 434.776855,352.722076 431.856567,352.362885 
	C429.300476,352.048492 427.287170,352.917847 426.420319,355.626923 
	C425.859650,357.379059 425.304382,359.225403 422.972046,359.337433 
	C421.162201,359.424377 418.861969,360.162537 417.703674,358.740997 
	C415.661011,356.234131 418.260925,353.796478 418.790894,350.922424 
M430.604401,342.646637 
	C431.659180,346.222565 433.856659,344.411591 435.992615,344.042297 
	C435.989014,341.059052 434.966858,338.739594 433.634247,336.036652 
	C431.859436,337.949951 431.455841,340.031097 430.604401,342.646637 
z"/>
<path fill="#000000" opacity="1.000000" stroke="none" 
	d="
M244.517303,329.413635 
	C242.096680,329.250336 239.879456,329.081055 239.410233,331.758514 
	C238.973648,334.249634 240.926651,335.269928 242.796829,336.070465 
	C245.544724,337.246704 248.459686,338.073639 251.109619,339.428558 
	C255.560822,341.704498 257.690796,345.625000 257.083801,350.531738 
	C256.495575,355.286591 253.437820,358.150848 248.775787,359.401123 
	C241.174515,361.439636 233.115097,358.489685 230.781433,352.564117 
	C230.092621,350.815063 228.740845,348.449371 231.259354,347.301910 
	C233.454376,346.301819 236.321045,345.732788 237.893906,348.548157 
	C239.153320,350.802460 240.861404,352.089813 243.313690,352.446136 
	C245.446640,352.756073 247.506912,352.274292 248.372284,350.174316 
	C249.357452,347.783661 247.613235,346.437073 245.688293,345.581970 
	C243.258881,344.502808 240.686905,343.739014 238.277878,342.620605 
	C232.417755,339.900085 229.994400,336.047668 230.799362,331.044189 
	C231.558640,326.324646 235.525925,323.008820 241.492889,322.106598 
	C247.441833,321.207092 253.530670,323.600311 255.367050,327.701050 
	C256.237885,329.645599 257.454102,332.120758 255.098083,333.523590 
	C253.107147,334.709076 250.486618,334.413208 248.604492,332.642090 
	C247.413010,331.520905 246.675827,329.905396 244.517303,329.413635 
z"/>
<path fill="#000000" opacity="1.000000" stroke="none" 
	d="
M357.000916,330.097321 
	C357.840973,328.046265 358.477295,326.326263 359.248596,324.669128 
	C360.499359,321.981964 363.075195,322.389130 365.334320,322.310913 
	C367.482758,322.236481 368.513733,323.662109 369.190613,325.571259 
	C372.747864,335.604462 376.369019,345.614990 379.964417,355.634705 
	C380.306671,356.588593 380.524231,357.553101 379.851105,358.839478 
	C376.061859,359.584473 372.101746,360.724121 370.635620,355.030121 
	C369.921539,352.256836 367.623596,352.120392 365.431946,352.371613 
	C362.527649,352.704498 358.658234,350.711151 357.125153,354.853363 
	C355.376801,359.577118 352.231018,360.092255 347.304077,358.563843 
	C349.427002,348.771149 353.809418,339.821381 357.000916,330.097321 
M365.983582,341.303314 
	C365.415497,339.587341 365.358795,337.597687 363.405426,336.100861 
	C362.697449,338.224518 362.090668,339.911560 361.577148,341.626587 
	C361.155945,343.033356 361.264160,344.396179 363.033997,344.645203 
	C364.934357,344.912537 366.917908,344.948822 365.983582,341.303314 
z"/>
<path fill="#000000" opacity="1.000000" stroke="none" 
	d="
M219.956238,334.185822 
	C222.240921,342.543243 226.345871,349.895905 228.056290,357.994354 
	C222.476990,360.435425 220.710388,360.064087 218.550064,355.088989 
	C216.943787,351.389832 214.039917,352.388336 211.383682,352.275238 
	C208.915482,352.170105 206.165497,351.833191 205.312622,355.155396 
	C203.914841,360.600037 200.212616,359.679504 196.466644,358.700958 
	C195.426056,356.571381 196.499390,354.888977 197.059586,353.221130 
	C199.917404,344.712555 202.865829,336.234344 205.793945,327.749451 
	C206.736526,325.018127 207.681870,322.658600 211.436722,322.510925 
	C215.489883,322.351471 216.490921,324.812195 217.493942,327.765869 
	C218.188324,329.810608 219.040237,331.801880 219.956238,334.185822 
M209.097473,342.147736 
	C209.144058,347.175293 212.176376,344.193359 214.368790,344.411316 
	C214.350769,341.170044 213.385010,338.718689 211.461594,335.851868 
	C210.569916,338.146942 209.919693,339.820526 209.097473,342.147736 
z"/>
<path fill="#000000" opacity="1.000000" stroke="none" 
	d="
M645.187317,330.065125 
	C641.301331,330.063141 641.333618,332.507080 641.347717,334.931610 
	C641.386597,341.587646 641.346375,348.245636 641.504150,354.898926 
	C641.587158,358.398468 640.038818,359.457214 636.679443,359.460632 
	C633.109253,359.464264 632.017517,357.894287 632.063904,354.620178 
	C632.153625,348.294769 631.891541,341.960785 632.111328,335.642059 
	C632.247742,331.722870 630.904785,329.642090 626.863220,329.556213 
	C624.377930,329.503479 622.140625,329.126404 622.256348,325.778198 
	C622.371033,322.457397 624.727356,322.194336 627.135925,322.157745 
	C633.295166,322.064240 639.457153,321.993927 645.615601,322.082092 
	C648.419556,322.122192 652.109863,321.129425 652.103149,325.971008 
	C652.096619,330.714172 648.417480,329.707123 645.187317,330.065125 
z"/>
<path fill="#000000" opacity="1.000000" stroke="none" 
	d="
M716.268921,326.139099 
	C718.585632,321.193878 722.392212,322.811157 725.946716,322.977814 
	C726.597290,326.038239 724.603699,327.873535 723.476990,329.979095 
	C719.185913,337.998169 713.717773,345.584900 715.191345,355.518982 
	C715.654053,358.638153 713.588745,359.437378 710.817749,359.396118 
	C708.243469,359.357758 705.694458,359.035065 706.155090,355.800903 
	C707.619812,345.517059 702.196533,337.594025 697.645386,329.304810 
	C696.654358,327.499847 695.028809,325.751831 695.811401,323.358307 
	C703.207764,321.636017 703.956909,322.001801 707.000610,328.427460 
	C708.044739,330.631836 709.247131,332.761261 710.643616,335.434875 
	C713.366760,332.468140 714.545654,329.358734 716.268921,326.139099 
z"/>
<path fill="#000000" opacity="1.000000" stroke="none" 
	d="
M778.426636,330.219177 
	C775.600525,331.391785 776.178467,333.622162 776.156311,335.510193 
	C776.086243,341.485596 776.120422,347.462891 776.173462,353.438904 
	C776.201233,356.574371 776.372437,359.357910 771.746765,359.404724 
	C766.935547,359.453430 766.896362,356.605011 766.925781,353.221588 
	C766.977722,347.245605 766.806458,341.265076 766.980347,335.293762 
	C767.087646,331.610260 765.949524,329.717407 761.937317,329.772308 
	C759.548401,329.805023 756.703369,329.745605 756.794983,325.969330 
	C756.895935,321.806335 759.869019,322.425873 762.491150,322.421509 
	C769.119873,322.410522 775.749451,322.468506 782.376953,322.376282 
	C784.913147,322.341003 786.588684,322.915375 786.558899,325.878021 
	C786.533142,328.437256 785.594177,330.030426 782.823486,330.072235 
	C781.496094,330.092255 780.168762,330.115631 778.426636,330.219177 
z"/>
<path fill="#000000" opacity="1.000000" stroke="none" 
	d="
M170.558594,323.410706 
	C179.192505,322.126099 187.500183,322.850159 195.792740,322.687683 
	C197.990356,322.644623 199.185715,323.623413 199.174454,325.968933 
	C199.163544,328.243622 198.089874,329.115997 195.866470,329.386810 
	C188.336670,330.303894 188.345566,330.373047 188.338577,338.149689 
	C188.333511,343.800049 188.258987,349.451538 188.349258,355.100342 
	C188.395706,358.007446 187.298584,359.311615 184.267487,359.337219 
	C181.162552,359.363403 179.648193,358.318787 179.694168,355.035278 
	C179.789551,348.223114 179.544891,341.403351 179.758698,334.596741 
	C179.879135,330.763184 178.629364,328.975067 174.645020,329.370422 
	C170.318680,329.799774 168.791901,327.870239 170.558594,323.410706 
z"/>
<path fill="#000000" opacity="1.000000" stroke="none" 
	d="
M367.035156,395.317261 
	C365.731995,397.727722 365.401276,400.349945 363.271301,402.190582 
	C359.421631,400.045715 359.783325,395.801025 357.739502,392.642456 
	C356.373993,395.735870 358.619720,399.643066 354.784332,403.027252 
	C352.782532,396.096222 353.298157,390.024597 354.207092,384.163605 
	C354.552277,381.937714 357.243713,382.630463 358.303284,384.604523 
	C359.870514,387.524292 361.162842,390.591644 362.803558,394.089417 
	C364.973602,391.376251 365.863464,388.425385 366.952240,385.575348 
	C367.518646,384.092743 368.382050,382.827728 370.206573,383.050140 
	C372.258789,383.300415 372.290588,385.014221 372.230835,386.487305 
	C372.022339,391.624420 373.146729,396.892761 371.415405,402.374115 
	C369.407837,400.549164 369.407837,400.549164 368.087555,392.277405 
	C367.644592,393.543701 367.389984,394.271576 367.035156,395.317261 
z"/>
<path fill="#000000" opacity="1.000000" stroke="none" 
	d="
M393.088013,397.980652 
	C392.898621,399.835388 393.104156,401.753296 391.041626,401.780731 
	C388.983002,401.808136 388.968781,399.906311 388.946747,398.448883 
	C388.886444,394.457001 388.922760,390.462433 388.998444,386.470398 
	C389.023560,385.145599 389.143707,383.658020 390.641327,383.115631 
	C392.465485,382.454956 393.411438,383.873138 394.234528,385.101288 
	C396.083038,387.859528 397.822784,390.690704 400.120850,394.299316 
	C400.532318,390.057159 399.218689,386.203918 401.413116,383.188202 
	C402.684174,382.925964 403.582886,383.246124 403.734802,384.129730 
	C404.641785,389.404724 404.531830,394.764374 403.956635,400.017151 
	C403.626526,403.031921 401.235474,402.572845 399.709534,400.628387 
	C397.675140,398.036072 395.966461,395.188202 393.862396,392.071747 
	C392.714813,394.037628 393.284790,395.873016 393.088013,397.980652 
z"/>
<path fill="#000000" opacity="1.000000" stroke="none" 
	d="
M586.617126,383.224182 
	C589.009094,386.090179 591.076355,388.784607 593.677612,392.175140 
	C593.890442,389.178711 593.963745,387.079315 594.219666,385.002472 
	C594.343872,383.994385 594.914917,383.090912 596.148193,383.122620 
	C597.351135,383.153564 598.005066,384.015717 598.027405,385.049469 
	C598.135071,390.024628 598.149536,395.002258 598.144165,399.978943 
	C598.143250,400.838806 597.697571,401.638947 596.805359,401.874908 
	C595.480286,402.225433 594.576843,401.438812 593.894287,400.440948 
	C592.036865,397.725739 590.223877,394.980103 587.662903,391.156036 
	C587.453735,394.869232 587.348206,397.404724 587.150574,399.933014 
	C587.068481,400.983612 586.600342,401.865692 585.346680,401.890717 
	C584.375732,401.910126 583.640747,401.308441 583.639465,400.442169 
	C583.631287,394.984100 583.647583,389.522522 583.864929,384.070435 
	C583.909607,382.950226 585.225647,382.814148 586.617126,383.224182 
z"/>
<path fill="#000000" opacity="1.000000" stroke="none" 
	d="
M473.595551,393.109253 
	C471.105042,396.724152 476.009033,398.512787 475.023224,401.808929 
	C469.293396,404.085999 470.557404,394.684265 465.563599,395.816956 
	C464.335175,396.574829 464.518463,397.808899 464.412201,398.945038 
	C464.279449,400.364380 464.675720,402.275940 462.337250,402.082245 
	C460.328308,401.915833 460.193604,400.078369 460.212891,398.668488 
	C460.274109,394.195343 460.037537,389.621826 460.898895,385.282196 
	C461.816162,380.661194 466.064819,382.954437 468.822845,382.856628 
	C472.785461,382.716064 474.711151,385.394073 475.127869,389.162292 
	C475.282257,390.558075 474.609161,391.733185 473.595551,393.109253 
M464.437500,389.454132 
	C464.624054,391.819702 466.190460,392.041199 468.007141,391.633331 
	C469.374084,391.326385 470.505524,390.584137 470.566986,388.986938 
	C470.618744,387.642365 469.855103,386.749420 468.593048,386.472137 
	C466.621704,386.039093 464.882172,386.232391 464.437500,389.454132 
z"/>
<path fill="#000000" opacity="1.000000" stroke="none" 
	d="
M651.752197,393.355103 
	C650.662903,396.637543 654.096191,398.712677 653.216187,401.843475 
	C649.963989,402.910767 649.406372,400.116516 648.207153,398.370422 
	C647.382141,397.169250 646.989075,395.395660 645.132385,395.514679 
	C642.968506,395.653381 643.347412,397.528412 643.178406,398.945343 
	C643.018311,400.287048 642.954346,401.845215 641.220825,401.932312 
	C639.129761,402.037415 638.973145,400.278870 638.921692,398.784790 
	C638.824524,395.962524 638.863892,393.135071 638.867859,390.309845 
	C638.878174,382.970459 643.087708,380.316803 649.965820,383.304565 
	C653.605591,384.885651 654.214417,387.891174 651.752197,393.355103 
M646.173889,391.625183 
	C648.055664,391.449310 649.397644,390.568787 649.236084,388.545013 
	C649.117310,387.056396 647.960999,386.322754 646.463623,386.264313 
	C645.090454,386.210724 643.694336,386.291718 643.373047,387.976990 
	C643.044373,389.700989 643.112854,391.353577 646.173889,391.625183 
z"/>
<path fill="#000000" opacity="1.000000" stroke="none" 
	d="
M548.453247,394.332367 
	C547.963562,397.100677 549.347473,399.981232 546.974182,401.876343 
	C545.056030,401.726501 544.827820,400.515717 544.810730,399.351837 
	C544.744751,394.861389 544.745056,390.369446 544.773804,385.878418 
	C544.781372,384.691956 545.009521,383.471741 546.408020,383.116119 
	C547.741577,382.777100 548.565796,383.603851 549.303650,384.589386 
	C550.971375,386.816895 551.993530,389.543427 554.409973,391.350708 
	C555.920776,389.408478 555.349609,387.165436 555.694885,385.119293 
	C555.871033,384.075775 556.189697,383.098907 557.452454,383.112915 
	C558.716614,383.126984 559.147156,384.136475 559.159119,385.162415 
	C559.215210,389.984985 559.211060,394.808716 559.169495,399.631531 
	C559.160645,400.656464 558.797424,401.627045 557.593018,401.861023 
	C556.465637,402.080048 555.613037,401.455688 555.043335,400.635468 
	C553.621338,398.588104 552.348328,396.437683 550.944458,394.376984 
	C550.326294,393.469543 549.629333,392.064819 548.453247,394.332367 
z"/>
<path fill="#000000" opacity="1.000000" stroke="none" 
	d="
M526.863037,399.912109 
	C524.074768,396.023560 524.280579,392.006561 525.225525,388.092163 
	C526.378113,383.317230 530.919739,381.081207 535.357666,382.905334 
	C539.016052,384.409088 540.527954,387.542023 540.633789,391.266235 
	C540.749329,395.331696 540.420105,399.445557 536.260437,401.690857 
	C532.946777,403.479462 529.826965,402.806213 526.863037,399.912109 
M530.520630,387.257263 
	C528.399719,389.883759 528.815125,392.902893 529.389954,395.837646 
	C529.845459,398.163605 531.612122,399.522522 533.804932,398.434052 
	C537.293579,396.702240 536.960693,393.179352 536.455566,390.080811 
	C536.004517,387.313904 534.394836,385.472687 530.520630,387.257263 
z"/>
<path fill="#000000" opacity="1.000000" stroke="none" 
	d="
M493.302032,400.894226 
	C490.029724,396.542511 487.452484,396.293274 484.472168,400.008942 
	C483.473663,401.253815 482.722229,402.694855 480.972687,401.777496 
	C479.384186,400.944611 480.178467,399.412262 480.597473,398.219727 
	C482.085419,393.984589 483.638855,389.771576 485.233459,385.575256 
	C485.705994,384.331757 486.335693,383.079895 487.939758,382.980743 
	C489.592834,382.878571 490.265015,384.096161 490.793427,385.335815 
	C492.749634,389.924866 494.859802,394.463806 496.507050,399.163574 
	C497.592621,402.260864 496.216064,402.978943 493.302032,400.894226 
z"/>
<path fill="#000000" opacity="1.000000" stroke="none" 
	d="
M333.585724,396.167175 
	C333.542725,393.799683 333.336365,391.803192 333.512421,389.840973 
	C333.736237,387.345428 331.751068,383.908447 335.863525,382.833588 
	C340.349915,381.660950 345.444031,383.608276 347.077759,387.160339 
	C348.819153,390.946472 349.069000,394.894714 346.661560,398.530365 
	C344.125153,402.360779 340.052460,402.704010 336.025909,402.385834 
	C331.868286,402.057312 334.160370,398.616669 333.585724,396.167175 
M340.213715,386.397186 
	C335.587036,386.590118 337.384155,390.208801 337.418701,392.362000 
	C337.453918,394.556152 335.577881,398.601715 339.925781,398.501404 
	C344.251068,398.401611 344.004120,394.523407 343.885864,391.318115 
	C343.807831,389.203644 343.096252,387.428070 340.213715,386.397186 
z"/>
<path fill="#000000" opacity="1.000000" stroke="none" 
	d="
M433.604614,388.457428 
	C431.410919,389.603271 430.813538,387.757233 429.677582,386.962921 
	C428.177551,385.914032 426.250732,385.499329 425.221954,387.080872 
	C423.797119,389.271240 426.128082,389.772278 427.518341,390.464600 
	C428.993958,391.199432 430.626221,391.652588 432.025452,392.500427 
	C434.359100,393.914429 435.832672,395.965240 434.426636,398.738220 
	C432.723450,402.097168 429.681458,403.269226 426.077667,402.737030 
	C423.085754,402.295166 420.654724,400.724396 420.033905,397.623108 
	C419.676910,395.839905 421.214417,395.304962 422.653900,396.054718 
	C423.633453,396.564911 424.238861,397.748047 425.169312,398.407898 
	C426.780029,399.550232 428.657867,400.165466 429.904999,398.071350 
	C431.272888,395.774445 429.091339,395.324066 427.660858,394.645538 
	C426.765656,394.220886 425.788727,393.972168 424.874664,393.583038 
	C421.889221,392.312103 419.540375,390.490265 420.619568,386.805054 
	C421.602631,383.448151 424.265015,382.154724 427.564453,382.446320 
	C430.997803,382.749695 434.349518,383.426727 433.604614,388.457428 
z"/>
<path fill="#000000" opacity="1.000000" stroke="none" 
	d="
M325.047729,401.044189 
	C321.865448,396.333679 318.769897,396.074921 315.742798,400.094482 
	C314.793243,401.355377 314.060364,402.606232 311.574493,401.557190 
	C312.990356,395.455261 315.486420,389.640106 318.316589,384.011932 
	C319.297028,382.062164 321.360413,382.683868 322.181122,384.528961 
	C324.394257,389.504700 326.649963,394.496094 328.322449,399.664551 
	C329.290009,402.654572 327.260406,402.508270 325.047729,401.044189 
z"/>
<path fill="#000000" opacity="1.000000" stroke="none" 
	d="
M680.618164,397.554077 
	C677.838623,398.217957 678.176208,403.558014 675.122192,401.627106 
	C672.387817,399.898315 675.369568,396.900208 676.089783,394.599854 
	C677.122498,391.301453 678.568542,388.112579 680.064270,384.985107 
	C681.336121,382.325958 683.452271,381.880981 684.726929,384.726685 
	C687.131897,390.095795 689.034485,395.689941 691.254578,401.473755 
	C686.000854,403.335083 685.825806,394.754395 680.618164,397.554077 
z"/>
<path fill="#000000" opacity="1.000000" stroke="none" 
	d="
M621.436523,400.445801 
	C621.200378,395.875519 621.151123,391.733337 621.034363,387.593018 
	C620.934937,384.069641 622.456482,382.328461 626.105225,382.661743 
	C628.744446,382.902832 631.609680,381.997650 634.038086,383.816406 
	C633.042419,386.708527 630.934631,385.870422 629.271912,386.081116 
	C627.687195,386.281891 625.589539,385.822174 625.498779,388.233887 
	C625.410156,390.589142 627.329224,390.577118 629.042908,390.634155 
	C630.464355,390.681519 632.080627,390.249939 632.959351,391.948608 
	C632.554993,394.757477 630.348694,393.999847 628.700378,394.195038 
	C627.197388,394.372986 625.506531,394.285553 625.463379,396.395660 
	C625.415405,398.742981 627.222473,398.765503 628.924011,398.983032 
	C630.709717,399.211304 633.021606,398.290558 634.166443,401.641266 
	C629.744812,402.451965 625.655640,403.494415 621.436523,400.445801 
z"/>
<path fill="#000000" opacity="1.000000" stroke="none" 
	d="
M706.262207,383.199066 
	C708.846375,384.871918 711.039490,386.388611 709.562744,389.507050 
	C708.140625,389.941040 707.370728,389.330231 706.739014,388.514801 
	C705.412720,386.802948 703.773010,385.620789 701.609497,386.590790 
	C698.960938,387.778168 698.584045,390.411438 698.482727,392.907806 
	C698.393677,395.100189 698.860413,397.399567 701.038269,398.466339 
	C703.101013,399.476807 704.849976,398.527161 706.205505,396.727600 
	C707.080444,395.566071 708.323730,394.836456 709.566956,396.067383 
	C710.563416,397.053955 709.825195,398.246216 709.258911,399.258026 
	C706.643860,403.930511 699.308411,403.969086 696.330444,399.149353 
	C693.763000,394.993988 694.050842,390.527069 696.353821,386.354675 
	C698.450073,382.556885 702.012634,382.154083 706.262207,383.199066 
z"/>
<path fill="#000000" opacity="1.000000" stroke="none" 
	d="
M722.315674,386.145508 
	C720.397461,386.286957 719.347229,386.928589 719.486572,388.639435 
	C719.630249,390.404572 720.953369,390.576904 722.361389,390.712128 
	C723.907959,390.860657 725.801147,390.190247 726.690247,392.315430 
	C726.209106,394.721985 724.224731,394.018219 722.722290,394.173401 
	C721.189941,394.331665 719.538330,394.310730 719.481506,396.400970 
	C719.416382,398.796448 721.267395,398.744690 722.956299,398.960052 
	C724.892090,399.206909 727.350769,398.173706 728.862671,401.617340 
	C724.381226,402.459717 720.296387,403.321136 716.399414,401.099915 
	C715.032776,400.320984 715.255981,384.137177 716.549255,383.615784 
	C720.400330,382.063049 724.333130,382.228912 728.507629,383.627563 
	C727.105530,387.144806 724.596741,385.764069 722.315674,386.145508 
z"/>
<path fill="#000000" opacity="1.000000" stroke="none" 
	d="
M669.616577,386.028320 
	C668.053223,386.137787 666.895142,386.161560 665.739990,386.232178 
	C664.427429,386.312408 663.483887,386.896179 663.492981,388.332672 
	C663.501587,389.698700 664.348816,390.346924 665.651672,390.612518 
	C667.156982,390.919434 669.097961,390.269440 669.863647,392.311035 
	C669.805237,394.033936 668.498657,394.193115 667.398071,394.134491 
	C664.060181,393.956604 663.042969,395.638550 663.207336,398.688995 
	C663.284729,400.125366 663.304993,401.991791 661.154480,401.932343 
	C659.122620,401.876160 659.097351,400.044983 659.035767,398.595947 
	C658.930481,396.119324 658.972595,393.634430 659.013428,391.153992 
	C659.151245,382.783417 661.397217,380.965546 669.486877,382.738220 
	C672.155457,383.322968 672.683594,384.416321 669.616577,386.028320 
z"/>
<path fill="#000000" opacity="1.000000" stroke="none" 
	d="
M507.354858,388.671936 
	C507.289978,392.259552 507.312225,395.426636 507.220734,398.590454 
	C507.178955,400.036438 507.336090,401.947754 505.172607,401.884125 
	C503.124969,401.823944 503.297546,399.918121 503.077240,398.485107 
	C503.001801,397.994507 503.063416,397.484314 503.010742,396.988556 
	C502.498138,392.162720 505.732941,385.737183 496.411896,384.856750 
	C501.351074,381.907166 509.465668,382.020752 512.509033,384.400604 
	C511.891449,387.122314 507.708557,385.140320 507.354858,388.671936 
z"/>
<path fill="#000000" opacity="1.000000" stroke="none" 
	d="
M455.229309,384.689636 
	C447.834229,385.899872 449.509155,391.429260 449.221619,396.089722 
	C449.096863,398.111725 450.621429,401.684448 447.326202,401.736542 
	C444.184784,401.786194 445.464691,398.195618 445.064728,396.109955 
	C444.972382,395.628357 445.027771,395.118317 445.016388,394.621338 
	C444.890320,389.123627 444.890411,389.123627 439.123322,383.425476 
	C445.030640,383.019745 450.200623,381.014343 455.229309,384.689636 
z"/>
<path fill="#000000" opacity="1.000000" stroke="none" 
	d="
M611.288147,398.677917 
	C611.153503,400.292389 611.152344,401.676819 609.626892,401.774414 
	C608.094971,401.872437 607.839966,400.565338 607.726746,399.369781 
	C607.648743,398.545471 607.686279,397.710602 607.662109,396.880768 
	C607.518250,391.927917 609.750305,385.867249 601.284363,385.035706 
	C604.723450,382.054565 612.788452,381.844727 616.680176,384.119293 
	C616.633911,384.439697 616.641479,385.017151 616.526428,385.042664 
	C608.287415,386.872894 612.184814,393.496765 611.288147,398.677917 
z"/>
<path fill="#000000" opacity="1.000000" stroke="none" 
	d="
M520.216003,394.899139 
	C519.756653,397.605286 521.499634,401.568359 518.379944,401.650909 
	C514.584717,401.751343 516.238037,397.625488 516.020874,395.282867 
	C515.730957,392.157135 515.851868,388.986877 515.914062,385.838013 
	C515.941040,384.472717 516.325378,383.056519 518.099670,383.102783 
	C519.895020,383.149536 520.077209,384.613800 520.114868,385.964447 
	C520.193298,388.782074 520.183350,391.602173 520.216003,394.899139 
z"/>
<path fill="#000000" opacity="1.000000" stroke="none" 
	d="
M410.603638,387.597656 
	C410.909302,385.727295 409.792175,383.347534 412.201172,383.180267 
	C414.587524,383.014618 414.231445,385.337494 414.254456,386.891754 
	C414.315521,391.012695 414.270111,395.135834 414.215851,399.257446 
	C414.200592,400.417877 414.080536,401.747375 412.592041,401.907654 
	C410.834930,402.096863 410.258209,400.693634 410.258881,399.354584 
	C410.260742,395.572693 410.471436,391.790894 410.603638,387.597656 
z"/>
<path fill="#000000" opacity="1.000000" stroke="none" 
	d="
M577.289795,386.341766 
	C577.307678,390.754730 577.348267,394.706818 577.270752,398.656555 
	C577.243225,400.059296 577.476868,401.961273 575.249573,401.864441 
	C573.495728,401.788147 573.423218,400.208069 573.432129,398.886780 
	C573.461060,394.607758 573.531799,390.328491 573.649353,386.051056 
	C573.680237,384.927155 573.679443,383.528076 575.154541,383.301727 
	C577.090698,383.004669 577.064636,384.599640 577.289795,386.341766 
z"/>
<path fill="#000000" opacity="1.000000" stroke="none" 
	d="
M382.330017,386.347290 
	C382.063324,391.793640 383.150360,396.893707 381.712860,401.679779 
	C379.492737,401.990845 378.992828,400.847656 378.963074,399.684906 
	C378.844330,395.044220 378.839172,390.399719 378.862732,385.756989 
	C378.868713,384.579254 379.147736,383.221252 380.662201,383.268005 
	C382.203857,383.315582 382.164642,384.748108 382.330017,386.347290 
z"/>
</svg>