<?xml version="1.0" encoding="UTF-8" standalone="no" ?>
<!DOCTYPE svg PUBLIC "-//W3C//DTD SVG 1.1//EN" "http://www.w3.org/Graphics/SVG/1.1/DTD/svg11.dtd">
<svg xmlns="http://www.w3.org/2000/svg" xmlns:xlink="http://www.w3.org/1999/xlink" version="1.1" width="1080" height="1080" viewBox="0 0 1080 1080" xml:space="preserve">
<desc>Created with Fabric.js 5.2.4</desc>
<defs>
</defs>
<rect x="0" y="0" width="100%" height="100%" fill="transparent"></rect>
<g transform="matrix(1 0 0 1 540 540)" id="ed81565d-e52f-46d7-93ed-fde6ecce173d"  >
<rect style="stroke: none; stroke-width: 1; stroke-dasharray: none; stroke-linecap: butt; stroke-dashoffset: 0; stroke-linejoin: miter; stroke-miterlimit: 4; fill: rgb(255,255,255); fill-rule: nonzero; opacity: 1; visibility: hidden;" vector-effect="non-scaling-stroke"  x="-540" y="-540" rx="0" ry="0" width="1080" height="1080" />
</g>
<g transform="matrix(1 0 0 1 540 540)" id="42d9144f-518b-4aa3-96e2-01a04843c282"  >
</g>
<g transform="matrix(1 0 0 1 540 540)"  >
<g style="" vector-effect="non-scaling-stroke"   >
		<g transform="matrix(1 0 0 1 -0.14 -50.8)"  >
<path style="stroke: none; stroke-width: 1; stroke-dasharray: none; stroke-linecap: butt; stroke-dashoffset: 0; stroke-linejoin: miter; stroke-miterlimit: 4; fill: rgb(0,0,0); fill-rule: nonzero; opacity: 1;" vector-effect="non-scaling-stroke"  transform=" translate(-513.43, -213.74)" d="M 543.342407 141.600006 C 558.163208 150.314957 572.619995 158.927536 587.200989 167.324371 C 590.183472 169.041855 591.345154 171.030563 591.331116 174.472931 C 591.222595 201.135696 591.237 227.799393 591.362305 254.462112 C 591.378357 257.879272 590.32251 259.882141 587.247803 261.572174 C 564.036926 274.329987 540.906128 287.234253 517.808411 300.196259 C 515.047363 301.745667 512.906372 301.895966 510.02478 300.214996 C 486.714905 286.61731 463.299774 273.200012 439.906372 259.745667 C 435.549561 257.239899 434.643219 252.859909 437.511871 245.555145 C 461.09082 257.575562 483.489807 271.560822 506.543152 284.332336 C 508.699646 282.389771 507.914703 280.074768 507.952667 278.050629 C 508.074493 271.553925 507.767273 265.043549 508.053925 258.557404 C 508.250671 254.106247 506.389252 251.589844 502.631592 249.449905 C 482.654816 238.07338 462.797363 226.487442 442.897125 214.976501 C 434.98053 210.397278 434.373962 208.97673 436.643219 198.687927 C 460.784027 210.675461 483.274384 225.106644 507.537689 238.488922 C 508.386627 230.805222 508.275909 223.810226 507.40448 216.848938 C 507.170502 214.979996 504.872711 214.318192 503.321472 213.408493 C 482.914917 201.441483 462.485443 189.513443 442.06134 177.576355 C 440.767944 176.820435 439.398743 176.170868 438.189331 175.299072 C 434.574188 172.693192 434.647949 169.888657 438.587585 167.626877 C 450.145355 160.991425 461.764496 154.462341 473.383209 147.933701 C 485.582123 141.079041 497.844757 134.336777 509.997528 127.401657 C 513.089294 125.637306 515.627625 125.55941 518.769165 127.468811 C 526.736938 132.3116 534.923462 136.794403 543.342407 141.600006 M 548.441101 158.109055 C 538.521423 152.311295 528.518372 146.6492 518.729797 140.637939 C 515.55127 138.685974 513.182434 138.937836 510.105255 140.746429 C 499.77182 146.819656 489.262817 152.593719 478.83371 158.504654 C 471.226135 162.816391 463.63855 167.163315 455.255402 171.943069 C 474.641815 183.048828 493.123444 193.59874 511.553131 204.238647 C 514.025269 205.665833 515.897461 204.798859 518.015808 203.586441 C 532.75708 195.149185 547.53772 186.780502 562.294556 178.3703 C 565.547546 176.516373 568.755981 174.584381 572.78241 172.220016 C 564.274658 167.283051 556.67749 162.874451 548.441101 158.109055 M 575.408447 221.017944 C 558.502258 230.646927 541.639404 240.353653 524.652405 249.837891 C 521.337524 251.688629 519.819397 253.809097 519.964783 257.691803 C 520.244568 265.168182 520.055603 272.661469 520.110901 280.1474 C 520.121399 281.56955 519.664001 283.201721 521.279114 284.173431 C 521.638306 284.143005 522.021912 284.217896 522.283813 284.072968 C 540.615417 273.930206 558.9375 263.770264 577.25946 253.610153 C 579.031921 252.627289 579.786438 251.122635 579.775818 249.091721 C 579.729675 240.274887 579.714233 231.457687 579.741516 222.640793 C 579.751221 219.493744 578.331055 219.305008 575.408447 221.017944 M 564.279785 190.838196 C 550.967529 198.389206 537.651123 205.933075 524.348389 213.500854 C 522.781128 214.392471 520.643066 215.0513 520.440186 217.067307 C 519.764587 223.780487 519.785156 230.504242 520.511719 237.517395 C 521.845398 237.259247 522.547485 237.290298 523.068542 236.998337 C 541.065308 226.914932 559.047913 216.806091 577.021301 206.681076 C 578.346497 205.934555 579.623596 204.981018 579.635803 203.279449 C 579.684204 196.55304 579.65564 189.826096 579.65564 182.128296 C 574.087158 185.275269 569.499268 187.868057 564.279785 190.838196 z" stroke-linecap="round" />
</g>
		<g transform="matrix(1 0 0 1 20.99 76.37)"  >
<path style="stroke: none; stroke-width: 1; stroke-dasharray: none; stroke-linecap: butt; stroke-dashoffset: 0; stroke-linejoin: miter; stroke-miterlimit: 4; fill: rgb(0,0,0); fill-rule: nonzero; opacity: 1;" vector-effect="non-scaling-stroke"  transform=" translate(-534.55, -340.91)" d="M 538.878906 334.006775 C 539.837585 331.10733 540.768677 328.607605 541.496643 326.050049 C 542.24408 323.424255 543.921509 322.351501 546.570129 322.123871 C 552.320129 321.629669 553.269165 322.393616 553.293396 328.183594 C 553.330383 337.00766 553.293396 345.832367 553.387024 354.655762 C 553.419678 357.737122 552.732666 359.827667 549.053528 359.858215 C 545.420715 359.888367 544.552246 357.985504 544.672852 354.795624 C 544.821899 350.854584 544.708496 346.903656 543.895508 342.781433 C 542.19635 347.184204 540.457092 351.572083 538.815918 355.996399 C 538.050232 358.060547 536.952271 359.385498 534.503784 359.368713 C 531.990051 359.35144 531.135376 357.823883 530.358887 355.811188 C 528.937439 352.126434 528.023071 348.207855 525.522156 344.603577 C 523.908081 349.319855 525.102295 353.989716 524.392212 358.392395 C 516.946045 360.91391 515.786316 360.100494 515.781982 352.601624 C 515.777222 344.276886 515.737366 335.952148 515.71991 327.627411 C 515.714539 325.094269 515.475037 322.307312 519.113098 322.125122 C 522.521545 321.954437 526.051025 321.120117 527.491211 326.045044 C 529.246887 332.048737 531.71814 337.843231 534.112732 344.362122 C 537.022827 341.044159 537.562744 337.55484 538.878906 334.006775 z" stroke-linecap="round" />
</g>
		<g transform="matrix(1 0 0 1 324.5 76.34)"  >
<path style="stroke: none; stroke-width: 1; stroke-dasharray: none; stroke-linecap: butt; stroke-dashoffset: 0; stroke-linejoin: miter; stroke-miterlimit: 4; fill: rgb(0,0,0); fill-rule: nonzero; opacity: 1;" vector-effect="non-scaling-stroke"  transform=" translate(-838.07, -340.88)" d="M 856.887939 324.007568 C 857.123596 334.537201 857.180115 344.67981 857.293152 354.821777 C 857.326721 357.834473 856.278442 359.422485 852.9375 359.398529 C 849.650024 359.374969 848.554443 357.946747 848.647522 354.836975 C 848.784485 350.258759 848.682861 345.67337 848.030151 340.97757 C 846.386658 345.264648 844.798584 349.574097 843.077637 353.829865 C 842.132812 356.166351 842.023987 359.22995 838.306274 359.333984 C 834.188599 359.449219 834.298279 355.992798 833.269287 353.581177 C 831.77533 350.079803 830.500793 346.484802 828.121704 343.018188 C 828.121704 346.84964 828.073242 350.681885 828.137939 354.512238 C 828.184631 357.275208 827.877075 359.340637 824.22583 359.406921 C 820.606018 359.472595 819.008118 358.121277 819.004211 354.530518 C 818.994507 345.548889 818.882874 336.567444 818.843384 327.585785 C 818.833008 325.224335 818.687195 322.641266 822.155457 322.634186 C 825.595947 322.627167 829.599548 320.908295 831.253967 326.087433 C 833.21875 332.238037 835.501709 338.286987 838.128418 345.748047 C 840.567444 339.224792 842.506531 333.915375 844.536316 328.640839 C 847.087524 322.011719 849.603149 321.003143 856.887939 324.007568 z" stroke-linecap="round" />
</g>
		<g transform="matrix(1 0 0 1 -189.01 76.21)"  >
<path style="stroke: none; stroke-width: 1; stroke-dasharray: none; stroke-linecap: butt; stroke-dashoffset: 0; stroke-linejoin: miter; stroke-miterlimit: 4; fill: rgb(0,0,0); fill-rule: nonzero; opacity: 1;" vector-effect="non-scaling-stroke"  transform=" translate(-324.56, -340.75)" d="M 322.869781 340.871826 C 323.442749 342.244354 323.877869 343.302765 324.529602 344.888123 C 327.584473 339.040802 328.869507 333.166351 330.897858 327.574646 C 332.496582 323.167419 337.338226 321.041687 341.648804 322.716339 C 343.319763 323.365509 343.268402 324.668427 343.273773 325.976959 C 343.314056 335.808563 343.286713 345.640533 343.359894 355.471832 C 343.38031 358.213806 342.218689 359.378387 339.47348 359.36261 C 336.835938 359.347473 334.818085 358.911102 334.853546 355.639771 C 334.902161 351.149109 334.865692 346.657501 334.019012 341.923645 C 332.669708 345.556091 331.503723 349.271606 329.908844 352.792847 C 328.78125 355.282379 329.193848 359.206177 324.893524 359.270233 C 320.604797 359.334167 320.790192 355.539886 319.700684 352.980774 C 318.027191 349.050079 316.596191 345.016174 314.335999 341.182587 C 314.335999 345.770538 314.26416 350.360046 314.36264 354.945862 C 314.422852 357.750946 313.570831 359.304016 310.431671 359.350342 C 307.292023 359.396637 305.814636 358.253693 305.826294 355.016327 C 305.859802 345.684601 305.767334 336.352539 305.753632 327.020538 C 305.750641 324.978271 305.757629 322.595428 308.624603 322.760376 C 311.606262 322.931946 315.527802 320.260406 317.274933 325.005646 C 319.172943 330.160583 320.919403 335.371277 322.869781 340.871826 z" stroke-linecap="round" />
</g>
		<g transform="matrix(1 0 0 1 90.53 76.19)"  >
<path style="stroke: none; stroke-width: 1; stroke-dasharray: none; stroke-linecap: butt; stroke-dashoffset: 0; stroke-linejoin: miter; stroke-miterlimit: 4; fill: rgb(0,0,0); fill-rule: nonzero; opacity: 1;" vector-effect="non-scaling-stroke"  transform=" translate(-604.1, -340.73)" d="M 589.233032 335.436646 C 589.108643 332.66745 588.948364 330.340424 588.976379 328.015625 C 589.003479 325.76181 588.430054 323.002472 591.565063 322.294983 C 594.652283 321.598267 597.49646 322.020844 599.36322 325.138428 C 602.425476 330.252411 605.593811 335.302856 609.984863 340.236664 C 609.984863 336.067291 610.057068 331.89624 609.96167 327.729034 C 609.887451 324.483704 610.640503 322.123657 614.520752 322.148987 C 618.300049 322.173676 619.225708 324.401825 619.204163 327.7034 C 619.146667 336.516205 619.251221 345.329987 619.19696 354.142822 C 619.184509 356.171387 619.838501 358.873047 616.653992 359.215271 C 613.89679 359.511597 610.995728 359.973358 609.180176 356.790344 C 606.298462 351.73822 603.247131 346.782654 600.248657 341.797577 C 599.923706 341.257324 599.474182 340.792084 598.15625 339.110016 C 598.15625 345.003204 598.075073 349.597412 598.183411 354.187164 C 598.262024 357.521667 597.440796 359.515167 593.477478 359.453247 C 589.255371 359.387177 589.109619 356.758636 589.127869 353.768707 C 589.164368 347.805664 589.227417 341.842743 589.233032 335.436646 z" stroke-linecap="round" />
</g>
		<g transform="matrix(1 0 0 1 -115.02 76.28)"  >
<path style="stroke: none; stroke-width: 1; stroke-dasharray: none; stroke-linecap: butt; stroke-dashoffset: 0; stroke-linejoin: miter; stroke-miterlimit: 4; fill: rgb(0,0,0); fill-rule: nonzero; opacity: 1;" vector-effect="non-scaling-stroke"  transform=" translate(-398.54, -340.83)" d="M 393.035522 345.46228 C 393.072968 348.559814 393.099731 351.225861 393.137909 353.891754 C 393.181915 356.964325 392.889343 359.428162 388.682434 359.450714 C 384.681519 359.472168 383.953094 357.440155 383.961029 354.151031 C 383.9823 345.318848 383.857361 336.486328 383.859802 327.653961 C 383.860382 325.539459 383.556946 323.101166 386.526428 322.485046 C 389.288025 321.912048 391.807617 321.97702 393.481598 324.852509 C 395.660492 328.595367 397.965881 332.264984 400.239716 335.951965 C 401.162506 337.448242 402.14563 338.907318 404.107666 340.105164 C 404.107666 335.836517 404.195526 331.565521 404.081146 327.299927 C 403.981476 323.583313 405.903137 322.353088 409.311554 322.327728 C 412.935547 322.300781 413.210083 324.577545 413.200714 327.325592 C 413.170105 336.324524 413.239868 345.323883 413.18988 354.322632 C 413.179382 356.209198 413.754639 358.724152 410.933197 359.131348 C 408.371826 359.501038 405.52243 360.107849 403.812042 357.101166 C 401.505554 353.04657 399.206726 348.987061 396.843658 344.965485 C 395.954681 343.452576 395.507446 341.565826 393.625641 340.698181 C 392.571991 342.083649 393.211029 343.615936 393.035522 345.46228 z" stroke-linecap="round" />
</g>
		<g transform="matrix(1 0 0 1 -46.97 76.48)"  >
<path style="stroke: none; stroke-width: 1; stroke-dasharray: none; stroke-linecap: butt; stroke-dashoffset: 0; stroke-linejoin: miter; stroke-miterlimit: 4; fill: rgb(0,0,0); fill-rule: nonzero; opacity: 1;" vector-effect="non-scaling-stroke"  transform=" translate(-466.6, -341.02)" d="M 481.210846 342.302063 C 481.285828 344.261322 481.321747 345.757996 481.332825 347.254883 C 481.401581 356.531006 480.585449 357.702209 472.760162 359.58725 C 464.610748 361.550354 457.061737 358.846985 454.355225 352.480743 C 451.250641 345.178284 450.970428 337.577515 453.893311 330.115387 C 456.071564 324.554382 461.365509 321.497833 467.960724 321.849548 C 473.379333 322.138519 478.169403 323.782104 480.25589 329.490814 C 480.904541 331.265564 482.321228 333.591095 479.807556 334.753448 C 477.570953 335.787659 474.570435 336.109528 473.004364 333.635437 C 471.133362 330.679596 469.187378 328.376312 465.457428 329.62973 C 461.309601 331.023621 461.237823 334.798523 461.137451 338.318756 C 461.061798 340.972412 461.063629 343.660583 461.399841 346.286163 C 461.922363 350.366516 465.372131 352.91684 469.132874 352.285767 C 470.887115 351.991394 472.38678 351.338837 472.459503 349.231018 C 472.522247 347.410736 471.549927 346.39978 469.76355 346.34848 C 467.195953 346.274719 466.236603 345.009399 466.465088 342.512207 C 466.724487 339.677277 468.811584 339.353149 470.794495 339.652374 C 474.278748 340.178101 478.486816 337.517609 481.210846 342.302063 z" stroke-linecap="round" />
</g>
		<g transform="matrix(1 0 0 1 -237.43 76.31)"  >
<path style="stroke: none; stroke-width: 1; stroke-dasharray: none; stroke-linecap: butt; stroke-dashoffset: 0; stroke-linejoin: miter; stroke-miterlimit: 4; fill: rgb(0,0,0); fill-rule: nonzero; opacity: 1;" vector-effect="non-scaling-stroke"  transform=" translate(-276.13, -340.85)" d="M 279.164551 354.944092 C 277.115509 351.678314 275.274841 348.726624 273.327667 345.604156 C 268.739655 347.504517 270.43335 351.330109 270.35672 354.266754 C 270.266418 357.726746 269.386566 359.557098 265.509277 359.403198 C 262.579681 359.286987 261.180573 358.192749 261.169342 355.27829 C 261.132843 345.794373 261.130859 336.309875 261.005737 326.826996 C 260.958405 323.237274 262.947113 322.296265 266.046173 322.22818 C 269.388672 322.154694 270.40387 323.893005 270.239258 326.932709 C 270.113708 329.251404 270.214294 331.582275 270.214294 334.842468 C 276.443695 329.719391 278.6763 318.885132 290.23291 323.445435 C 287.236877 327.139801 284.511047 330.976898 281.283417 334.331116 C 278.674408 337.04245 278.692657 339.121338 280.844391 342.0914 C 284.516205 347.159546 287.766083 352.533417 291.260956 357.882538 C 284.832123 360.615967 282.36618 359.958282 279.164551 354.944092 z" stroke-linecap="round" />
</g>
		<g transform="matrix(1 0 0 1 59.23 76.3)"  >
<path style="stroke: none; stroke-width: 1; stroke-dasharray: none; stroke-linecap: butt; stroke-dashoffset: 0; stroke-linejoin: miter; stroke-miterlimit: 4; fill: rgb(0,0,0); fill-rule: nonzero; opacity: 1;" vector-effect="non-scaling-stroke"  transform=" translate(-572.8, -340.84)" d="M 580.959717 359.548523 C 574.942078 359.501404 569.291748 359.387421 563.642029 359.414154 C 560.922424 359.427002 559.722656 358.288208 559.732971 355.545258 C 559.769958 345.731201 559.762268 335.916443 559.676636 326.102783 C 559.652771 323.363983 560.839478 322.107178 563.517639 322.106659 C 569.671875 322.105499 575.826172 322.083588 581.980408 322.0896 C 584.602356 322.092133 586.005066 323.312622 585.912964 326.062286 C 585.826294 328.646851 584.71405 330.115662 581.96228 330.071136 C 579.135254 330.025391 576.307007 330.0242 573.479553 330.043304 C 571.177124 330.058868 569.011353 330.311523 569.130737 333.444672 C 569.250366 336.585022 571.521179 336.573578 573.758911 336.575165 C 575.255798 336.576202 576.753845 336.56311 578.249329 336.503479 C 580.68042 336.406555 582.017578 337.416504 582.037109 339.974579 C 582.054871 342.299408 581.207703 343.877747 578.691223 344.032806 C 577.033325 344.134949 575.365784 344.153381 573.704834 344.114136 C 570.951172 344.049164 568.6521 344.518585 568.515137 347.956146 C 568.37439 351.48996 570.666626 351.989532 573.442993 351.960083 C 575.937744 351.933594 578.43335 351.9646 580.928223 351.995667 C 583.254333 352.024658 585.236816 352.390778 585.367004 355.428436 C 585.493164 358.372162 584.41272 359.875824 580.959717 359.548523 z" stroke-linecap="round" />
</g>
		<g transform="matrix(1 0 0 1 -14.07 76.31)"  >
<path style="stroke: none; stroke-width: 1; stroke-dasharray: none; stroke-linecap: butt; stroke-dashoffset: 0; stroke-linejoin: miter; stroke-miterlimit: 4; fill: rgb(0,0,0); fill-rule: nonzero; opacity: 1;" vector-effect="non-scaling-stroke"  transform=" translate(-499.5, -340.85)" d="M 499.422607 351.859711 C 502.698029 351.933899 505.529541 351.9245 508.356506 352.032867 C 511.27475 352.144684 512.387573 353.783813 512.271973 356.638275 C 512.15271 359.584808 510.196777 359.600861 508.102936 359.584106 C 502.286835 359.537628 496.470551 359.44754 490.654724 359.471405 C 487.944885 359.482513 486.73999 358.353027 486.753937 355.586029 C 486.802521 345.929657 486.797394 336.272125 486.692627 326.616364 C 486.661224 323.723572 487.803436 322.176422 490.708588 322.155914 C 496.700806 322.113586 502.693573 322.111633 508.685883 322.141205 C 511.059021 322.152893 512.345581 323.215759 512.308838 325.813751 C 512.272034 328.421082 511.315796 329.959503 508.564819 329.998718 C 506.068115 330.034302 503.570526 330.016296 501.074066 330.061432 C 498.591919 330.106293 495.539307 329.709991 495.571655 333.391907 C 495.605103 337.193359 498.886536 336.312134 501.207062 336.549164 C 502.692108 336.700836 504.200806 336.638031 505.698944 336.640381 C 508.271698 336.64444 509.187622 338.087372 509.18396 340.469025 C 509.180481 342.723511 508.067047 343.870422 505.876007 343.977264 C 504.047974 344.066467 502.215088 344.052979 500.384857 344.102692 C 498.313446 344.158905 496.248962 344.259247 496.039124 347.050598 C 495.866974 349.341187 495.928223 351.508484 499.422607 351.859711 z" stroke-linecap="round" />
</g>
		<g transform="matrix(1 0 0 1 227.87 76.45)"  >
<path style="stroke: none; stroke-width: 1; stroke-dasharray: none; stroke-linecap: butt; stroke-dashoffset: 0; stroke-linejoin: miter; stroke-miterlimit: 4; fill: rgb(0,0,0); fill-rule: nonzero; opacity: 1;" vector-effect="non-scaling-stroke"  transform=" translate(-741.44, -340.99)" d="M 738.614563 322.068359 C 744.399109 321.437988 749.496155 322.07019 752.964233 326.714752 C 754.304443 328.509674 756.755981 331.235962 753.955872 333.187561 C 751.586365 334.83902 748.156067 335.155273 745.93335 332.093628 C 744.783386 330.509583 743.575317 329.3284 741.505005 329.348907 C 739.684509 329.366974 738.126465 329.96582 737.569885 331.790405 C 737.039734 333.528503 738.209045 334.696503 739.618347 335.357361 C 741.567322 336.27121 743.626465 336.952698 745.647278 337.710114 C 749.678467 339.221008 753.085876 341.345001 754.559631 345.758209 C 755.774292 349.39566 755.267029 352.644836 752.899475 355.608521 C 747.234497 362.69986 732.758423 361.132111 728.915527 352.945801 C 728.062927 351.129822 726.387939 348.650879 729.211609 347.315643 C 731.389709 346.285614 734.217163 345.878174 735.848206 348.673309 C 737.219971 351.024017 739.029053 352.539795 741.804993 352.497406 C 743.53064 352.471039 745.192322 351.958832 745.726135 350.039978 C 746.240967 348.189484 745.430481 346.698761 743.795898 345.869263 C 741.873474 344.893707 739.840454 344.129883 737.835022 343.325256 C 732.793396 341.30246 728.532288 338.534332 728.378052 332.390839 C 728.248169 327.216766 730.95575 324.528412 738.614563 322.068359 z" stroke-linecap="round" />
</g>
		<g transform="matrix(1 0 0 1 166.65 76.41)"  >
<path style="stroke: none; stroke-width: 1; stroke-dasharray: none; stroke-linecap: butt; stroke-dashoffset: 0; stroke-linejoin: miter; stroke-miterlimit: 4; fill: rgb(0,0,0); fill-rule: nonzero; opacity: 1;" vector-effect="non-scaling-stroke"  transform=" translate(-680.22, -340.95)" d="M 677.312012 330.19516 C 675.036316 333.631775 677.365906 335.00769 679.658752 336.114624 C 682.043152 337.265717 684.649841 337.948914 687.068115 339.038879 C 691.837952 341.188782 694.386902 345.40976 693.933228 350.096436 C 693.464539 354.937927 690.411438 358.183167 685.041748 359.547577 C 677.757202 361.398499 670.177185 358.365814 667.626648 352.411835 C 666.846313 350.590179 665.135986 347.97464 668.261841 347.014099 C 670.458191 346.339142 673.755615 345.0289 675.003845 348.821014 C 675.97467 351.770233 678.240356 352.389404 680.834656 352.519989 C 682.665527 352.612183 684.101135 351.806305 684.637451 349.952972 C 685.187561 348.051605 684.281494 346.595154 682.651733 345.843719 C 679.790283 344.524353 676.776001 343.539215 673.899048 342.250244 C 669.337158 340.20636 666.846313 336.688568 667.361206 331.596313 C 667.88031 326.462006 671.26355 323.748535 675.97522 322.437195 C 682.304382 320.675629 689.555359 322.768524 692.047852 327.292969 C 693.10144 329.205292 694.984924 331.872681 692.274414 333.437225 C 689.96814 334.768433 686.658508 335.396667 684.792053 332.193542 C 682.984253 329.090851 680.595398 328.77951 677.312012 330.19516 z" stroke-linecap="round" />
</g>
		<g transform="matrix(1 0 0 1 288.87 76.32)"  >
<path style="stroke: none; stroke-width: 1; stroke-dasharray: none; stroke-linecap: butt; stroke-dashoffset: 0; stroke-linejoin: miter; stroke-miterlimit: 4; fill: rgb(0,0,0); fill-rule: nonzero; opacity: 1;" vector-effect="non-scaling-stroke"  transform=" translate(-802.44, -340.86)" d="M 811.124512 336.978119 C 812.987488 342.978394 812.421448 343.8172 806.889771 343.933716 C 805.22467 343.968781 803.54657 344.050537 801.894714 343.895172 C 799.244324 343.645874 798.285522 344.813293 798.379517 347.362 C 798.463623 349.644409 798.418884 351.843262 801.586121 351.882599 C 804.750488 351.921875 807.916138 351.944855 811.078064 352.059998 C 813.507385 352.148438 815.239441 352.9841 815.174438 355.911621 C 815.106445 358.974396 813.160217 359.339783 810.79126 359.338776 C 805.29364 359.336456 799.794006 359.271088 794.299194 359.399536 C 791.155518 359.473022 789.753296 358.268677 789.762512 355.028809 C 789.789551 345.533752 789.718994 336.037079 789.546997 326.543579 C 789.496704 323.77121 790.540344 322.586151 793.301941 322.573822 C 799.286987 322.54715 805.271179 322.356506 811.256226 322.318542 C 813.635376 322.303436 815.432312 322.916962 815.323975 326.01001 C 815.227295 328.769348 814.016174 329.980804 811.392639 330.009369 C 808.561157 330.040192 805.729065 330.020935 802.897705 330.060028 C 800.677673 330.090668 798.4375 330.022797 798.404846 333.27594 C 798.370605 336.677887 800.560791 336.37149 802.838379 336.235474 C 805.492004 336.077026 808.168152 335.838928 811.124512 336.978119 z" stroke-linecap="round" />
</g>
		<g transform="matrix(1 0 0 1 -79.85 76.26)"  >
<path style="stroke: none; stroke-width: 1; stroke-dasharray: none; stroke-linecap: butt; stroke-dashoffset: 0; stroke-linejoin: miter; stroke-miterlimit: 4; fill: rgb(0,0,0); fill-rule: nonzero; opacity: 1;" vector-effect="non-scaling-stroke"  transform=" translate(-433.71, -340.8)" d="M 418.790894 350.922424 C 421.880524 342.608185 424.896545 334.683777 427.789581 326.714722 C 428.770081 324.013794 429.964569 322.046631 433.320618 322.00058 C 436.65155 321.954865 437.973328 323.745789 438.952667 326.52066 C 442.699738 337.137756 446.560394 347.714813 450.491425 358.619568 C 445.817566 359.842468 442.112488 360.470612 440.154144 354.952667 C 438.7034 350.865021 434.776855 352.722076 431.856567 352.362885 C 429.300476 352.048492 427.28717 352.917847 426.420319 355.626923 C 425.85965 357.379059 425.304382 359.225403 422.972046 359.337433 C 421.162201 359.424377 418.861969 360.162537 417.703674 358.740997 C 415.661011 356.234131 418.260925 353.796478 418.790894 350.922424 M 430.604401 342.646637 C 431.65918 346.222565 433.856659 344.411591 435.992615 344.042297 C 435.989014 341.059052 434.966858 338.739594 433.634247 336.036652 C 431.859436 337.949951 431.455841 340.031097 430.604401 342.646637 z" stroke-linecap="round" />
</g>
		<g transform="matrix(1 0 0 1 -270.07 76.44)"  >
<path style="stroke: none; stroke-width: 1; stroke-dasharray: none; stroke-linecap: butt; stroke-dashoffset: 0; stroke-linejoin: miter; stroke-miterlimit: 4; fill: rgb(0,0,0); fill-rule: nonzero; opacity: 1;" vector-effect="non-scaling-stroke"  transform=" translate(-243.49, -340.98)" d="M 244.517303 329.413635 C 242.09668 329.250336 239.879456 329.081055 239.410233 331.758514 C 238.973648 334.249634 240.926651 335.269928 242.796829 336.070465 C 245.544724 337.246704 248.459686 338.073639 251.109619 339.428558 C 255.560822 341.704498 257.690796 345.625 257.083801 350.531738 C 256.495575 355.286591 253.43782 358.150848 248.775787 359.401123 C 241.174515 361.439636 233.115097 358.489685 230.781433 352.564117 C 230.092621 350.815063 228.740845 348.449371 231.259354 347.30191 C 233.454376 346.301819 236.321045 345.732788 237.893906 348.548157 C 239.15332 350.80246 240.861404 352.089813 243.31369 352.446136 C 245.44664 352.756073 247.506912 352.274292 248.372284 350.174316 C 249.357452 347.783661 247.613235 346.437073 245.688293 345.58197 C 243.258881 344.502808 240.686905 343.739014 238.277878 342.620605 C 232.417755 339.900085 229.9944 336.047668 230.799362 331.044189 C 231.55864 326.324646 235.525925 323.00882 241.492889 322.106598 C 247.441833 321.207092 253.53067 323.600311 255.36705 327.70105 C 256.237885 329.645599 257.454102 332.120758 255.098083 333.52359 C 253.107147 334.709076 250.486618 334.413208 248.604492 332.64209 C 247.41301 331.520905 246.675827 329.905396 244.517303 329.413635 z" stroke-linecap="round" />
</g>
		<g transform="matrix(1 0 0 1 -149.77 76.34)"  >
<path style="stroke: none; stroke-width: 1; stroke-dasharray: none; stroke-linecap: butt; stroke-dashoffset: 0; stroke-linejoin: miter; stroke-miterlimit: 4; fill: rgb(0,0,0); fill-rule: nonzero; opacity: 1;" vector-effect="non-scaling-stroke"  transform=" translate(-363.8, -340.89)" d="M 357.000916 330.097321 C 357.840973 328.046265 358.477295 326.326263 359.248596 324.669128 C 360.499359 321.981964 363.075195 322.38913 365.33432 322.310913 C 367.482758 322.236481 368.513733 323.662109 369.190613 325.571259 C 372.747864 335.604462 376.369019 345.61499 379.964417 355.634705 C 380.306671 356.588593 380.524231 357.553101 379.851105 358.839478 C 376.061859 359.584473 372.101746 360.724121 370.63562 355.030121 C 369.921539 352.256836 367.623596 352.120392 365.431946 352.371613 C 362.527649 352.704498 358.658234 350.711151 357.125153 354.853363 C 355.376801 359.577118 352.231018 360.092255 347.304077 358.563843 C 349.427002 348.771149 353.809418 339.821381 357.000916 330.097321 M 365.983582 341.303314 C 365.415497 339.587341 365.358795 337.597687 363.405426 336.100861 C 362.697449 338.224518 362.090668 339.91156 361.577148 341.626587 C 361.155945 343.033356 361.26416 344.396179 363.033997 344.645203 C 364.934357 344.912537 366.917908 344.948822 365.983582 341.303314 z" stroke-linecap="round" />
</g>
		<g transform="matrix(1 0 0 1 -301.52 76.44)"  >
<path style="stroke: none; stroke-width: 1; stroke-dasharray: none; stroke-linecap: butt; stroke-dashoffset: 0; stroke-linejoin: miter; stroke-miterlimit: 4; fill: rgb(0,0,0); fill-rule: nonzero; opacity: 1;" vector-effect="non-scaling-stroke"  transform=" translate(-212.04, -340.98)" d="M 219.956238 334.185822 C 222.240921 342.543243 226.345871 349.895905 228.05629 357.994354 C 222.47699 360.435425 220.710388 360.064087 218.550064 355.088989 C 216.943787 351.389832 214.039917 352.388336 211.383682 352.275238 C 208.915482 352.170105 206.165497 351.833191 205.312622 355.155396 C 203.914841 360.600037 200.212616 359.679504 196.466644 358.700958 C 195.426056 356.571381 196.49939 354.888977 197.059586 353.22113 C 199.917404 344.712555 202.865829 336.234344 205.793945 327.749451 C 206.736526 325.018127 207.68187 322.6586 211.436722 322.510925 C 215.489883 322.351471 216.490921 324.812195 217.493942 327.765869 C 218.188324 329.810608 219.040237 331.80188 219.956238 334.185822 M 209.097473 342.147736 C 209.144058 347.175293 212.176376 344.193359 214.36879 344.411316 C 214.350769 341.170044 213.38501 338.718689 211.461594 335.851868 C 210.569916 338.146942 209.919693 339.820526 209.097473 342.147736 z" stroke-linecap="round" />
</g>
		<g transform="matrix(1 0 0 1 123.61 76.2)"  >
<path style="stroke: none; stroke-width: 1; stroke-dasharray: none; stroke-linecap: butt; stroke-dashoffset: 0; stroke-linejoin: miter; stroke-miterlimit: 4; fill: rgb(0,0,0); fill-rule: nonzero; opacity: 1;" vector-effect="non-scaling-stroke"  transform=" translate(-637.18, -340.74)" d="M 645.187317 330.065125 C 641.301331 330.063141 641.333618 332.50708 641.347717 334.93161 C 641.386597 341.587646 641.346375 348.245636 641.50415 354.898926 C 641.587158 358.398468 640.038818 359.457214 636.679443 359.460632 C 633.109253 359.464264 632.017517 357.894287 632.063904 354.620178 C 632.153625 348.294769 631.891541 341.960785 632.111328 335.642059 C 632.247742 331.72287 630.904785 329.64209 626.86322 329.556213 C 624.37793 329.503479 622.140625 329.126404 622.256348 325.778198 C 622.371033 322.457397 624.727356 322.194336 627.135925 322.157745 C 633.295166 322.06424 639.457153 321.993927 645.615601 322.082092 C 648.419556 322.122192 652.109863 321.129425 652.103149 325.971008 C 652.096619 330.714172 648.41748 329.707123 645.187317 330.065125 z" stroke-linecap="round" />
</g>
		<g transform="matrix(1 0 0 1 197.27 76.39)"  >
<path style="stroke: none; stroke-width: 1; stroke-dasharray: none; stroke-linecap: butt; stroke-dashoffset: 0; stroke-linejoin: miter; stroke-miterlimit: 4; fill: rgb(0,0,0); fill-rule: nonzero; opacity: 1;" vector-effect="non-scaling-stroke"  transform=" translate(-710.84, -340.94)" d="M 716.268921 326.139099 C 718.585632 321.193878 722.392212 322.811157 725.946716 322.977814 C 726.59729 326.038239 724.603699 327.873535 723.47699 329.979095 C 719.185913 337.998169 713.717773 345.5849 715.191345 355.518982 C 715.654053 358.638153 713.588745 359.437378 710.817749 359.396118 C 708.243469 359.357758 705.694458 359.035065 706.15509 355.800903 C 707.619812 345.517059 702.196533 337.594025 697.645386 329.30481 C 696.654358 327.499847 695.028809 325.751831 695.811401 323.358307 C 703.207764 321.636017 703.956909 322.001801 707.00061 328.42746 C 708.044739 330.631836 709.247131 332.761261 710.643616 335.434875 C 713.36676 332.46814 714.545654 329.358734 716.268921 326.139099 z" stroke-linecap="round" />
</g>
		<g transform="matrix(1 0 0 1 258.11 76.35)"  >
<path style="stroke: none; stroke-width: 1; stroke-dasharray: none; stroke-linecap: butt; stroke-dashoffset: 0; stroke-linejoin: miter; stroke-miterlimit: 4; fill: rgb(0,0,0); fill-rule: nonzero; opacity: 1;" vector-effect="non-scaling-stroke"  transform=" translate(-771.68, -340.89)" d="M 778.426636 330.219177 C 775.600525 331.391785 776.178467 333.622162 776.156311 335.510193 C 776.086243 341.485596 776.120422 347.462891 776.173462 353.438904 C 776.201233 356.574371 776.372437 359.35791 771.746765 359.404724 C 766.935547 359.45343 766.896362 356.605011 766.925781 353.221588 C 766.977722 347.245605 766.806458 341.265076 766.980347 335.293762 C 767.087646 331.61026 765.949524 329.717407 761.937317 329.772308 C 759.548401 329.805023 756.703369 329.745605 756.794983 325.96933 C 756.895935 321.806335 759.869019 322.425873 762.49115 322.421509 C 769.119873 322.410522 775.749451 322.468506 782.376953 322.376282 C 784.913147 322.341003 786.588684 322.915375 786.558899 325.878021 C 786.533142 328.437256 785.594177 330.030426 782.823486 330.072235 C 781.496094 330.092255 780.168762 330.115631 778.426636 330.219177 z" stroke-linecap="round" />
</g>
		<g transform="matrix(1 0 0 1 -329.06 76.44)"  >
<path style="stroke: none; stroke-width: 1; stroke-dasharray: none; stroke-linecap: butt; stroke-dashoffset: 0; stroke-linejoin: miter; stroke-miterlimit: 4; fill: rgb(0,0,0); fill-rule: nonzero; opacity: 1;" vector-effect="non-scaling-stroke"  transform=" translate(-184.51, -340.98)" d="M 170.558594 323.410706 C 179.192505 322.126099 187.500183 322.850159 195.79274 322.687683 C 197.990356 322.644623 199.185715 323.623413 199.174454 325.968933 C 199.163544 328.243622 198.089874 329.115997 195.86647 329.38681 C 188.33667 330.303894 188.345566 330.373047 188.338577 338.149689 C 188.333511 343.800049 188.258987 349.451538 188.349258 355.100342 C 188.395706 358.007446 187.298584 359.311615 184.267487 359.337219 C 181.162552 359.363403 179.648193 358.318787 179.694168 355.035278 C 179.789551 348.223114 179.544891 341.403351 179.758698 334.596741 C 179.879135 330.763184 178.629364 328.975067 174.64502 329.370422 C 170.31868 329.799774 168.791901 327.870239 170.558594 323.410706 z" stroke-linecap="round" />
</g>
		<g transform="matrix(1 0 0 1 -150.66 128.36)"  >
<path style="stroke: none; stroke-width: 1; stroke-dasharray: none; stroke-linecap: butt; stroke-dashoffset: 0; stroke-linejoin: miter; stroke-miterlimit: 4; fill: rgb(0,0,0); fill-rule: nonzero; opacity: 1;" vector-effect="non-scaling-stroke"  transform=" translate(-362.9, -392.9)" d="M 367.035156 395.317261 C 365.731995 397.727722 365.401276 400.349945 363.271301 402.190582 C 359.421631 400.045715 359.783325 395.801025 357.739502 392.642456 C 356.373993 395.73587 358.61972 399.643066 354.784332 403.027252 C 352.782532 396.096222 353.298157 390.024597 354.207092 384.163605 C 354.552277 381.937714 357.243713 382.630463 358.303284 384.604523 C 359.870514 387.524292 361.162842 390.591644 362.803558 394.089417 C 364.973602 391.376251 365.863464 388.425385 366.95224 385.575348 C 367.518646 384.092743 368.38205 382.827728 370.206573 383.05014 C 372.258789 383.300415 372.290588 385.014221 372.230835 386.487305 C 372.022339 391.62442 373.146729 396.892761 371.415405 402.374115 C 369.407837 400.549164 369.407837 400.549164 368.087555 392.277405 C 367.644592 393.543701 367.389984 394.271576 367.035156 395.317261 z" stroke-linecap="round" />
</g>
		<g transform="matrix(1 0 0 1 -116.91 128.02)"  >
<path style="stroke: none; stroke-width: 1; stroke-dasharray: none; stroke-linecap: butt; stroke-dashoffset: 0; stroke-linejoin: miter; stroke-miterlimit: 4; fill: rgb(0,0,0); fill-rule: nonzero; opacity: 1;" vector-effect="non-scaling-stroke"  transform=" translate(-396.66, -392.57)" d="M 393.088013 397.980652 C 392.898621 399.835388 393.104156 401.753296 391.041626 401.780731 C 388.983002 401.808136 388.968781 399.906311 388.946747 398.448883 C 388.886444 394.457001 388.92276 390.462433 388.998444 386.470398 C 389.02356 385.145599 389.143707 383.65802 390.641327 383.115631 C 392.465485 382.454956 393.411438 383.873138 394.234528 385.101288 C 396.083038 387.859528 397.822784 390.690704 400.12085 394.299316 C 400.532318 390.057159 399.218689 386.203918 401.413116 383.188202 C 402.684174 382.925964 403.582886 383.246124 403.734802 384.12973 C 404.641785 389.404724 404.53183 394.764374 403.956635 400.017151 C 403.626526 403.031921 401.235474 402.572845 399.709534 400.628387 C 397.67514 398.036072 395.966461 395.188202 393.862396 392.071747 C 392.714813 394.037628 393.28479 395.873016 393.088013 397.980652 z" stroke-linecap="round" />
</g>
		<g transform="matrix(1 0 0 1 77.33 127.94)"  >
<path style="stroke: none; stroke-width: 1; stroke-dasharray: none; stroke-linecap: butt; stroke-dashoffset: 0; stroke-linejoin: miter; stroke-miterlimit: 4; fill: rgb(0,0,0); fill-rule: nonzero; opacity: 1;" vector-effect="non-scaling-stroke"  transform=" translate(-590.89, -392.49)" d="M 586.617126 383.224182 C 589.009094 386.090179 591.076355 388.784607 593.677612 392.17514 C 593.890442 389.178711 593.963745 387.079315 594.219666 385.002472 C 594.343872 383.994385 594.914917 383.090912 596.148193 383.12262 C 597.351135 383.153564 598.005066 384.015717 598.027405 385.049469 C 598.135071 390.024628 598.149536 395.002258 598.144165 399.978943 C 598.14325 400.838806 597.697571 401.638947 596.805359 401.874908 C 595.480286 402.225433 594.576843 401.438812 593.894287 400.440948 C 592.036865 397.725739 590.223877 394.980103 587.662903 391.156036 C 587.453735 394.869232 587.348206 397.404724 587.150574 399.933014 C 587.068481 400.983612 586.600342 401.865692 585.34668 401.890717 C 584.375732 401.910126 583.640747 401.308441 583.639465 400.442169 C 583.631287 394.9841 583.647583 389.522522 583.864929 384.070435 C 583.909607 382.950226 585.225647 382.814148 586.617126 383.224182 z" stroke-linecap="round" />
</g>
		<g transform="matrix(1 0 0 1 -45.88 127.73)"  >
<path style="stroke: none; stroke-width: 1; stroke-dasharray: none; stroke-linecap: butt; stroke-dashoffset: 0; stroke-linejoin: miter; stroke-miterlimit: 4; fill: rgb(0,0,0); fill-rule: nonzero; opacity: 1;" vector-effect="non-scaling-stroke"  transform=" translate(-467.68, -392.27)" d="M 473.595551 393.109253 C 471.105042 396.724152 476.009033 398.512787 475.023224 401.808929 C 469.293396 404.085999 470.557404 394.684265 465.563599 395.816956 C 464.335175 396.574829 464.518463 397.808899 464.412201 398.945038 C 464.279449 400.36438 464.67572 402.27594 462.33725 402.082245 C 460.328308 401.915833 460.193604 400.078369 460.212891 398.668488 C 460.274109 394.195343 460.037537 389.621826 460.898895 385.282196 C 461.816162 380.661194 466.064819 382.954437 468.822845 382.856628 C 472.785461 382.716064 474.711151 385.394073 475.127869 389.162292 C 475.282257 390.558075 474.609161 391.733185 473.595551 393.109253 M 464.4375 389.454132 C 464.624054 391.819702 466.19046 392.041199 468.007141 391.633331 C 469.374084 391.326385 470.505524 390.584137 470.566986 388.986938 C 470.618744 387.642365 469.855103 386.74942 468.593048 386.472137 C 466.621704 386.039093 464.882172 386.232391 464.4375 389.454132 z" stroke-linecap="round" />
</g>
		<g transform="matrix(1 0 0 1 132.54 127.55)"  >
<path style="stroke: none; stroke-width: 1; stroke-dasharray: none; stroke-linecap: butt; stroke-dashoffset: 0; stroke-linejoin: miter; stroke-miterlimit: 4; fill: rgb(0,0,0); fill-rule: nonzero; opacity: 1;" vector-effect="non-scaling-stroke"  transform=" translate(-646.11, -392.09)" d="M 651.752197 393.355103 C 650.662903 396.637543 654.096191 398.712677 653.216187 401.843475 C 649.963989 402.910767 649.406372 400.116516 648.207153 398.370422 C 647.382141 397.16925 646.989075 395.39566 645.132385 395.514679 C 642.968506 395.653381 643.347412 397.528412 643.178406 398.945343 C 643.018311 400.287048 642.954346 401.845215 641.220825 401.932312 C 639.129761 402.037415 638.973145 400.27887 638.921692 398.78479 C 638.824524 395.962524 638.863892 393.135071 638.867859 390.309845 C 638.878174 382.970459 643.087708 380.316803 649.96582 383.304565 C 653.605591 384.885651 654.214417 387.891174 651.752197 393.355103 M 646.173889 391.625183 C 648.055664 391.44931 649.397644 390.568787 649.236084 388.545013 C 649.11731 387.056396 647.960999 386.322754 646.463623 386.264313 C 645.090454 386.210724 643.694336 386.291718 643.373047 387.97699 C 643.044373 389.700989 643.112854 391.353577 646.173889 391.625183 z" stroke-linecap="round" />
</g>
		<g transform="matrix(1 0 0 1 38.41 127.93)"  >
<path style="stroke: none; stroke-width: 1; stroke-dasharray: none; stroke-linecap: butt; stroke-dashoffset: 0; stroke-linejoin: miter; stroke-miterlimit: 4; fill: rgb(0,0,0); fill-rule: nonzero; opacity: 1;" vector-effect="non-scaling-stroke"  transform=" translate(-551.98, -392.47)" d="M 548.453247 394.332367 C 547.963562 397.100677 549.347473 399.981232 546.974182 401.876343 C 545.05603 401.726501 544.82782 400.515717 544.81073 399.351837 C 544.744751 394.861389 544.745056 390.369446 544.773804 385.878418 C 544.781372 384.691956 545.009521 383.471741 546.40802 383.116119 C 547.741577 382.7771 548.565796 383.603851 549.30365 384.589386 C 550.971375 386.816895 551.99353 389.543427 554.409973 391.350708 C 555.920776 389.408478 555.349609 387.165436 555.694885 385.119293 C 555.871033 384.075775 556.189697 383.098907 557.452454 383.112915 C 558.716614 383.126984 559.147156 384.136475 559.159119 385.162415 C 559.21521 389.984985 559.21106 394.808716 559.169495 399.631531 C 559.160645 400.656464 558.797424 401.627045 557.593018 401.861023 C 556.465637 402.080048 555.613037 401.455688 555.043335 400.635468 C 553.621338 398.588104 552.348328 396.437683 550.944458 394.376984 C 550.326294 393.469543 549.629333 392.064819 548.453247 394.332367 z" stroke-linecap="round" />
</g>
		<g transform="matrix(1 0 0 1 19.06 127.93)"  >
<path style="stroke: none; stroke-width: 1; stroke-dasharray: none; stroke-linecap: butt; stroke-dashoffset: 0; stroke-linejoin: miter; stroke-miterlimit: 4; fill: rgb(0,0,0); fill-rule: nonzero; opacity: 1;" vector-effect="non-scaling-stroke"  transform=" translate(-532.62, -392.47)" d="M 526.863037 399.912109 C 524.074768 396.02356 524.280579 392.006561 525.225525 388.092163 C 526.378113 383.31723 530.919739 381.081207 535.357666 382.905334 C 539.016052 384.409088 540.527954 387.542023 540.633789 391.266235 C 540.749329 395.331696 540.420105 399.445557 536.260437 401.690857 C 532.946777 403.479462 529.826965 402.806213 526.863037 399.912109 M 530.52063 387.257263 C 528.399719 389.883759 528.815125 392.902893 529.389954 395.837646 C 529.845459 398.163605 531.612122 399.522522 533.804932 398.434052 C 537.293579 396.70224 536.960693 393.179352 536.455566 390.080811 C 536.004517 387.313904 534.394836 385.472687 530.52063 387.257263 z" stroke-linecap="round" />
</g>
		<g transform="matrix(1 0 0 1 -25.12 127.98)"  >
<path style="stroke: none; stroke-width: 1; stroke-dasharray: none; stroke-linecap: butt; stroke-dashoffset: 0; stroke-linejoin: miter; stroke-miterlimit: 4; fill: rgb(0,0,0); fill-rule: nonzero; opacity: 1;" vector-effect="non-scaling-stroke"  transform=" translate(-488.45, -392.53)" d="M 493.302032 400.894226 C 490.029724 396.542511 487.452484 396.293274 484.472168 400.008942 C 483.473663 401.253815 482.722229 402.694855 480.972687 401.777496 C 479.384186 400.944611 480.178467 399.412262 480.597473 398.219727 C 482.085419 393.984589 483.638855 389.771576 485.233459 385.575256 C 485.705994 384.331757 486.335693 383.079895 487.939758 382.980743 C 489.592834 382.878571 490.265015 384.096161 490.793427 385.335815 C 492.749634 389.924866 494.859802 394.463806 496.50705 399.163574 C 497.592621 402.260864 496.216064 402.978943 493.302032 400.894226 z" stroke-linecap="round" />
</g>
		<g transform="matrix(1 0 0 1 -172.74 127.94)"  >
<path style="stroke: none; stroke-width: 1; stroke-dasharray: none; stroke-linecap: butt; stroke-dashoffset: 0; stroke-linejoin: miter; stroke-miterlimit: 4; fill: rgb(0,0,0); fill-rule: nonzero; opacity: 1;" vector-effect="non-scaling-stroke"  transform=" translate(-340.83, -392.48)" d="M 333.585724 396.167175 C 333.542725 393.799683 333.336365 391.803192 333.512421 389.840973 C 333.736237 387.345428 331.751068 383.908447 335.863525 382.833588 C 340.349915 381.66095 345.444031 383.608276 347.077759 387.160339 C 348.819153 390.946472 349.069 394.894714 346.66156 398.530365 C 344.125153 402.360779 340.05246 402.70401 336.025909 402.385834 C 331.868286 402.057312 334.16037 398.616669 333.585724 396.167175 M 340.213715 386.397186 C 335.587036 386.590118 337.384155 390.208801 337.418701 392.362 C 337.453918 394.556152 335.577881 398.601715 339.925781 398.501404 C 344.251068 398.401611 344.00412 394.523407 343.885864 391.318115 C 343.807831 389.203644 343.096252 387.42807 340.213715 386.397186 z" stroke-linecap="round" />
</g>
		<g transform="matrix(1 0 0 1 -86.09 128.09)"  >
<path style="stroke: none; stroke-width: 1; stroke-dasharray: none; stroke-linecap: butt; stroke-dashoffset: 0; stroke-linejoin: miter; stroke-miterlimit: 4; fill: rgb(0,0,0); fill-rule: nonzero; opacity: 1;" vector-effect="non-scaling-stroke"  transform=" translate(-427.48, -392.63)" d="M 433.604614 388.457428 C 431.410919 389.603271 430.813538 387.757233 429.677582 386.962921 C 428.177551 385.914032 426.250732 385.499329 425.221954 387.080872 C 423.797119 389.27124 426.128082 389.772278 427.518341 390.4646 C 428.993958 391.199432 430.626221 391.652588 432.025452 392.500427 C 434.3591 393.914429 435.832672 395.96524 434.426636 398.73822 C 432.72345 402.097168 429.681458 403.269226 426.077667 402.73703 C 423.085754 402.295166 420.654724 400.724396 420.033905 397.623108 C 419.67691 395.839905 421.214417 395.304962 422.6539 396.054718 C 423.633453 396.564911 424.238861 397.748047 425.169312 398.407898 C 426.780029 399.550232 428.657867 400.165466 429.904999 398.07135 C 431.272888 395.774445 429.091339 395.324066 427.660858 394.645538 C 426.765656 394.220886 425.788727 393.972168 424.874664 393.583038 C 421.889221 392.312103 419.540375 390.490265 420.619568 386.805054 C 421.602631 383.448151 424.265015 382.154724 427.564453 382.44632 C 430.997803 382.749695 434.349518 383.426727 433.604614 388.457428 z" stroke-linecap="round" />
</g>
		<g transform="matrix(1 0 0 1 -193.49 127.89)"  >
<path style="stroke: none; stroke-width: 1; stroke-dasharray: none; stroke-linecap: butt; stroke-dashoffset: 0; stroke-linejoin: miter; stroke-miterlimit: 4; fill: rgb(0,0,0); fill-rule: nonzero; opacity: 1;" vector-effect="non-scaling-stroke"  transform=" translate(-320.07, -392.44)" d="M 325.047729 401.044189 C 321.865448 396.333679 318.769897 396.074921 315.742798 400.094482 C 314.793243 401.355377 314.060364 402.606232 311.574493 401.55719 C 312.990356 395.455261 315.48642 389.640106 318.316589 384.011932 C 319.297028 382.062164 321.360413 382.683868 322.181122 384.528961 C 324.394257 389.5047 326.649963 394.496094 328.322449 399.664551 C 329.290009 402.654572 327.260406 402.50827 325.047729 401.044189 z" stroke-linecap="round" />
</g>
		<g transform="matrix(1 0 0 1 169.06 127.87)"  >
<path style="stroke: none; stroke-width: 1; stroke-dasharray: none; stroke-linecap: butt; stroke-dashoffset: 0; stroke-linejoin: miter; stroke-miterlimit: 4; fill: rgb(0,0,0); fill-rule: nonzero; opacity: 1;" vector-effect="non-scaling-stroke"  transform=" translate(-682.62, -392.41)" d="M 680.618164 397.554077 C 677.838623 398.217957 678.176208 403.558014 675.122192 401.627106 C 672.387817 399.898315 675.369568 396.900208 676.089783 394.599854 C 677.122498 391.301453 678.568542 388.112579 680.06427 384.985107 C 681.336121 382.325958 683.452271 381.880981 684.726929 384.726685 C 687.131897 390.095795 689.034485 395.689941 691.254578 401.473755 C 686.000854 403.335083 685.825806 394.754395 680.618164 397.554077 z" stroke-linecap="round" />
</g>
		<g transform="matrix(1 0 0 1 114.03 128.01)"  >
<path style="stroke: none; stroke-width: 1; stroke-dasharray: none; stroke-linecap: butt; stroke-dashoffset: 0; stroke-linejoin: miter; stroke-miterlimit: 4; fill: rgb(0,0,0); fill-rule: nonzero; opacity: 1;" vector-effect="non-scaling-stroke"  transform=" translate(-627.6, -392.56)" d="M 621.436523 400.445801 C 621.200378 395.875519 621.151123 391.733337 621.034363 387.593018 C 620.934937 384.069641 622.456482 382.328461 626.105225 382.661743 C 628.744446 382.902832 631.60968 381.99765 634.038086 383.816406 C 633.042419 386.708527 630.934631 385.870422 629.271912 386.081116 C 627.687195 386.281891 625.589539 385.822174 625.498779 388.233887 C 625.410156 390.589142 627.329224 390.577118 629.042908 390.634155 C 630.464355 390.681519 632.080627 390.249939 632.959351 391.948608 C 632.554993 394.757477 630.348694 393.999847 628.700378 394.195038 C 627.197388 394.372986 625.506531 394.285553 625.463379 396.39566 C 625.415405 398.742981 627.222473 398.765503 628.924011 398.983032 C 630.709717 399.211304 633.021606 398.290558 634.166443 401.641266 C 629.744812 402.451965 625.65564 403.494415 621.436523 400.445801 z" stroke-linecap="round" />
</g>
		<g transform="matrix(1 0 0 1 188.72 128.19)"  >
<path style="stroke: none; stroke-width: 1; stroke-dasharray: none; stroke-linecap: butt; stroke-dashoffset: 0; stroke-linejoin: miter; stroke-miterlimit: 4; fill: rgb(0,0,0); fill-rule: nonzero; opacity: 1;" vector-effect="non-scaling-stroke"  transform=" translate(-702.29, -392.73)" d="M 706.262207 383.199066 C 708.846375 384.871918 711.03949 386.388611 709.562744 389.50705 C 708.140625 389.94104 707.370728 389.330231 706.739014 388.514801 C 705.41272 386.802948 703.77301 385.620789 701.609497 386.59079 C 698.960938 387.778168 698.584045 390.411438 698.482727 392.907806 C 698.393677 395.100189 698.860413 397.399567 701.038269 398.466339 C 703.101013 399.476807 704.849976 398.527161 706.205505 396.7276 C 707.080444 395.566071 708.32373 394.836456 709.566956 396.067383 C 710.563416 397.053955 709.825195 398.246216 709.258911 399.258026 C 706.64386 403.930511 699.308411 403.969086 696.330444 399.149353 C 693.763 394.993988 694.050842 390.527069 696.353821 386.354675 C 698.450073 382.556885 702.012634 382.154083 706.262207 383.199066 z" stroke-linecap="round" />
</g>
		<g transform="matrix(1 0 0 1 208.6 127.97)"  >
<path style="stroke: none; stroke-width: 1; stroke-dasharray: none; stroke-linecap: butt; stroke-dashoffset: 0; stroke-linejoin: miter; stroke-miterlimit: 4; fill: rgb(0,0,0); fill-rule: nonzero; opacity: 1;" vector-effect="non-scaling-stroke"  transform=" translate(-722.17, -392.51)" d="M 722.315674 386.145508 C 720.397461 386.286957 719.347229 386.928589 719.486572 388.639435 C 719.630249 390.404572 720.953369 390.576904 722.361389 390.712128 C 723.907959 390.860657 725.801147 390.190247 726.690247 392.31543 C 726.209106 394.721985 724.224731 394.018219 722.72229 394.173401 C 721.189941 394.331665 719.53833 394.31073 719.481506 396.40097 C 719.416382 398.796448 721.267395 398.74469 722.956299 398.960052 C 724.89209 399.206909 727.350769 398.173706 728.862671 401.61734 C 724.381226 402.459717 720.296387 403.321136 716.399414 401.099915 C 715.032776 400.320984 715.255981 384.137177 716.549255 383.615784 C 720.40033 382.063049 724.33313 382.228912 728.507629 383.627563 C 727.10553 387.144806 724.596741 385.764069 722.315674 386.145508 z" stroke-linecap="round" />
</g>
		<g transform="matrix(1 0 0 1 151.77 127.48)"  >
<path style="stroke: none; stroke-width: 1; stroke-dasharray: none; stroke-linecap: butt; stroke-dashoffset: 0; stroke-linejoin: miter; stroke-miterlimit: 4; fill: rgb(0,0,0); fill-rule: nonzero; opacity: 1;" vector-effect="non-scaling-stroke"  transform=" translate(-665.34, -392.03)" d="M 669.616577 386.02832 C 668.053223 386.137787 666.895142 386.16156 665.73999 386.232178 C 664.427429 386.312408 663.483887 386.896179 663.492981 388.332672 C 663.501587 389.6987 664.348816 390.346924 665.651672 390.612518 C 667.156982 390.919434 669.097961 390.26944 669.863647 392.311035 C 669.805237 394.033936 668.498657 394.193115 667.398071 394.134491 C 664.060181 393.956604 663.042969 395.63855 663.207336 398.688995 C 663.284729 400.125366 663.304993 401.991791 661.15448 401.932343 C 659.12262 401.87616 659.097351 400.044983 659.035767 398.595947 C 658.930481 396.119324 658.972595 393.63443 659.013428 391.153992 C 659.151245 382.783417 661.397217 380.965546 669.486877 382.73822 C 672.155457 383.322968 672.683594 384.416321 669.616577 386.02832 z" stroke-linecap="round" />
</g>
		<g transform="matrix(1 0 0 1 -9.11 127.71)"  >
<path style="stroke: none; stroke-width: 1; stroke-dasharray: none; stroke-linecap: butt; stroke-dashoffset: 0; stroke-linejoin: miter; stroke-miterlimit: 4; fill: rgb(0,0,0); fill-rule: nonzero; opacity: 1;" vector-effect="non-scaling-stroke"  transform=" translate(-504.46, -392.26)" d="M 507.354858 388.671936 C 507.289978 392.259552 507.312225 395.426636 507.220734 398.590454 C 507.178955 400.036438 507.33609 401.947754 505.172607 401.884125 C 503.124969 401.823944 503.297546 399.918121 503.07724 398.485107 C 503.001801 397.994507 503.063416 397.484314 503.010742 396.988556 C 502.498138 392.16272 505.732941 385.737183 496.411896 384.85675 C 501.351074 381.907166 509.465668 382.020752 512.509033 384.400604 C 511.891449 387.122314 507.708557 385.14032 507.354858 388.671936 z" stroke-linecap="round" />
</g>
		<g transform="matrix(1 0 0 1 -66.39 127.58)"  >
<path style="stroke: none; stroke-width: 1; stroke-dasharray: none; stroke-linecap: butt; stroke-dashoffset: 0; stroke-linejoin: miter; stroke-miterlimit: 4; fill: rgb(0,0,0); fill-rule: nonzero; opacity: 1;" vector-effect="non-scaling-stroke"  transform=" translate(-447.18, -392.13)" d="M 455.229309 384.689636 C 447.834229 385.899872 449.509155 391.42926 449.221619 396.089722 C 449.096863 398.111725 450.621429 401.684448 447.326202 401.736542 C 444.184784 401.786194 445.464691 398.195618 445.064728 396.109955 C 444.972382 395.628357 445.027771 395.118317 445.016388 394.621338 C 444.89032 389.123627 444.890411 389.123627 439.123322 383.425476 C 445.03064 383.019745 450.200623 381.014343 455.229309 384.689636 z" stroke-linecap="round" />
</g>
		<g transform="matrix(1 0 0 1 95.42 127.64)"  >
<path style="stroke: none; stroke-width: 1; stroke-dasharray: none; stroke-linecap: butt; stroke-dashoffset: 0; stroke-linejoin: miter; stroke-miterlimit: 4; fill: rgb(0,0,0); fill-rule: nonzero; opacity: 1;" vector-effect="non-scaling-stroke"  transform=" translate(-608.98, -392.18)" d="M 611.288147 398.677917 C 611.153503 400.292389 611.152344 401.676819 609.626892 401.774414 C 608.094971 401.872437 607.839966 400.565338 607.726746 399.369781 C 607.648743 398.545471 607.686279 397.710602 607.662109 396.880768 C 607.51825 391.927917 609.750305 385.867249 601.284363 385.035706 C 604.72345 382.054565 612.788452 381.844727 616.680176 384.119293 C 616.633911 384.439697 616.641479 385.017151 616.526428 385.042664 C 608.287415 386.872894 612.184814 393.496765 611.288147 398.677917 z" stroke-linecap="round" />
</g>
		<g transform="matrix(1 0 0 1 4.5 127.83)"  >
<path style="stroke: none; stroke-width: 1; stroke-dasharray: none; stroke-linecap: butt; stroke-dashoffset: 0; stroke-linejoin: miter; stroke-miterlimit: 4; fill: rgb(0,0,0); fill-rule: nonzero; opacity: 1;" vector-effect="non-scaling-stroke"  transform=" translate(-518.07, -392.38)" d="M 520.216003 394.899139 C 519.756653 397.605286 521.499634 401.568359 518.379944 401.650909 C 514.584717 401.751343 516.238037 397.625488 516.020874 395.282867 C 515.730957 392.157135 515.851868 388.986877 515.914062 385.838013 C 515.94104 384.472717 516.325378 383.056519 518.09967 383.102783 C 519.89502 383.149536 520.077209 384.6138 520.114868 385.964447 C 520.193298 388.782074 520.18335 391.602173 520.216003 394.899139 z" stroke-linecap="round" />
</g>
		<g transform="matrix(1 0 0 1 -101.29 128.01)"  >
<path style="stroke: none; stroke-width: 1; stroke-dasharray: none; stroke-linecap: butt; stroke-dashoffset: 0; stroke-linejoin: miter; stroke-miterlimit: 4; fill: rgb(0,0,0); fill-rule: nonzero; opacity: 1;" vector-effect="non-scaling-stroke"  transform=" translate(-412.27, -392.55)" d="M 410.603638 387.597656 C 410.909302 385.727295 409.792175 383.347534 412.201172 383.180267 C 414.587524 383.014618 414.231445 385.337494 414.254456 386.891754 C 414.315521 391.012695 414.270111 395.135834 414.215851 399.257446 C 414.200592 400.417877 414.080536 401.747375 412.592041 401.907654 C 410.83493 402.096863 410.258209 400.693634 410.258881 399.354584 C 410.260742 395.572693 410.471436 391.790894 410.603638 387.597656 z" stroke-linecap="round" />
</g>
		<g transform="matrix(1 0 0 1 61.81 128.02)"  >
<path style="stroke: none; stroke-width: 1; stroke-dasharray: none; stroke-linecap: butt; stroke-dashoffset: 0; stroke-linejoin: miter; stroke-miterlimit: 4; fill: rgb(0,0,0); fill-rule: nonzero; opacity: 1;" vector-effect="non-scaling-stroke"  transform=" translate(-575.37, -392.57)" d="M 577.289795 386.341766 C 577.307678 390.75473 577.348267 394.706818 577.270752 398.656555 C 577.243225 400.059296 577.476868 401.961273 575.249573 401.864441 C 573.495728 401.788147 573.423218 400.208069 573.432129 398.88678 C 573.46106 394.607758 573.531799 390.328491 573.649353 386.051056 C 573.680237 384.927155 573.679443 383.528076 575.154541 383.301727 C 577.090698 383.004669 577.064636 384.59964 577.289795 386.341766 z" stroke-linecap="round" />
</g>
		<g transform="matrix(1 0 0 1 -132.9 127.96)"  >
<path style="stroke: none; stroke-width: 1; stroke-dasharray: none; stroke-linecap: butt; stroke-dashoffset: 0; stroke-linejoin: miter; stroke-miterlimit: 4; fill: rgb(0,0,0); fill-rule: nonzero; opacity: 1;" vector-effect="non-scaling-stroke"  transform=" translate(-380.66, -392.5)" d="M 382.330017 386.34729 C 382.063324 391.79364 383.15036 396.893707 381.71286 401.679779 C 379.492737 401.990845 378.992828 400.847656 378.963074 399.684906 C 378.84433 395.04422 378.839172 390.399719 378.862732 385.756989 C 378.868713 384.579254 379.147736 383.221252 380.662201 383.268005 C 382.203857 383.315582 382.164642 384.748108 382.330017 386.34729 z" stroke-linecap="round" />
</g>
</g>
</g>
</svg>